<svg width="17" height="10" viewBox="0 0 17 10" fill="none" xmlns="http://www.w3.org/2000/svg">
<path d="M8.71912 9.99998C8.56812 10.0009 8.41843 9.96941 8.27863 9.90724C8.13883 9.84507 8.01168 9.75346 7.90447 9.63767L1.02006 2.14152C0.803999 1.90626 0.682617 1.58718 0.682617 1.25447C0.682617 0.921764 0.803999 0.602685 1.02006 0.367426C1.23612 0.132167 1.52916 0 1.83471 0C2.14027 0 2.43331 0.132167 2.64937 0.367426L8.71912 6.98903L14.7889 0.37992C15.0084 0.175242 15.2907 0.0682887 15.5795 0.0804339C15.8683 0.0925791 16.1422 0.222928 16.3466 0.445432C16.5509 0.667936 16.6706 0.966207 16.6818 1.28064C16.6929 1.59507 16.5947 1.90251 16.4067 2.14152L9.52231 9.63767C9.30859 9.86848 9.02013 9.9986 8.71912 9.99998Z" fill="black"/>
</svg>
