<svg width="50" height="50" viewBox="0 0 50 50" fill="none" xmlns="http://www.w3.org/2000/svg">
<g id="icon 4" clip-path="url(#clip0_1448_114)">
<path id="Vector" d="M15.9873 3.72024C15.6549 2.69587 16.2154 1.59646 17.2397 1.2641C18.2631 0.931745 19.3625 1.49217 19.6959 2.51556C20.0282 3.53993 19.4678 4.63934 18.4434 4.9717C18.2436 5.037 18.0409 5.06721 17.8411 5.06721C17.0195 5.06731 16.2553 4.54382 15.9873 3.72024ZM5.19492 13.0526C5.54092 13.305 5.94248 13.4259 6.34112 13.4259C6.94248 13.4259 7.53702 13.148 7.91811 12.6237C8.55164 11.7534 8.35963 10.5342 7.48926 9.90064C6.61889 9.26711 5.3996 9.45912 4.76705 10.3294C4.13255 11.1998 4.32455 12.4191 5.19492 13.0526ZM11.4327 8.33816C11.8304 8.33816 12.2319 8.21633 12.5779 7.96487C13.4493 7.33134 13.6413 6.11205 13.0078 5.24178C12.3742 4.37131 11.1549 4.1794 10.2846 4.81293C9.41421 5.44548 9.22123 6.66477 9.85573 7.53602C10.2368 8.05941 10.8304 8.33816 11.4327 8.33816ZM2.46881 19.7378C2.66861 19.8031 2.87231 19.8342 3.07114 19.8342C3.89278 19.8342 4.65691 19.3109 4.92494 18.4873C5.2573 17.4629 4.69687 16.3635 3.67348 16.0302C2.65009 15.6978 1.5497 16.2582 1.21735 17.2816C0.884988 18.306 1.44444 19.4054 2.46881 19.7378ZM0.0380116 25.381C0.0506822 25.4424 0.0662767 25.5048 0.0847952 25.5661C0.103314 25.6265 0.124756 25.687 0.149123 25.7454C0.173489 25.804 0.200779 25.8624 0.230994 25.9181C0.260233 25.9736 0.293372 26.0292 0.328459 26.0818C0.363547 26.1354 0.401559 26.1871 0.442494 26.2358C0.482455 26.2855 0.526315 26.3333 0.571149 26.3781C0.615983 26.4229 0.663741 26.4668 0.713449 26.5067C0.762182 26.5467 0.813839 26.5857 0.867445 26.6208C0.920076 26.6559 0.975632 26.689 1.03119 26.7182C1.08674 26.7485 1.14522 26.7757 1.2037 26.8001C1.26218 26.8245 1.32261 26.8459 1.38304 26.8644C1.44444 26.8829 1.50682 26.8986 1.56822 26.9111C1.6306 26.9239 1.69493 26.9335 1.75731 26.9394C1.82163 26.9462 1.88596 26.9492 1.94931 26.9492C2.01267 26.9492 2.07797 26.9463 2.14132 26.9394C2.20467 26.9335 2.26803 26.9239 2.3304 26.9111C2.39278 26.8985 2.45419 26.8829 2.51559 26.8644C2.57602 26.8459 2.63645 26.8245 2.69493 26.8001C2.75341 26.7757 2.81189 26.7485 2.86744 26.7182C2.92397 26.689 2.97855 26.6559 3.03118 26.6208C3.08479 26.5857 3.13645 26.5467 3.18518 26.5067C3.23489 26.4668 3.28264 26.4229 3.32748 26.3781C3.37231 26.3333 3.41617 26.2855 3.45613 26.2358C3.49609 26.1871 3.53508 26.1354 3.57017 26.0818C3.60526 26.0292 3.63839 25.9737 3.66763 25.9181C3.69785 25.8625 3.72514 25.804 3.74951 25.7454C3.77387 25.687 3.79531 25.6265 3.81383 25.5661C3.83235 25.5047 3.84795 25.4423 3.86062 25.381C3.87329 25.3185 3.88303 25.2542 3.88888 25.1919C3.8957 25.1276 3.89863 25.0633 3.89863 24.9999C3.89863 24.9366 3.8957 24.8721 3.88888 24.8079C3.88303 24.7446 3.87329 24.6811 3.86062 24.6188C3.84795 24.5566 3.83235 24.4941 3.81383 24.4336C3.79531 24.3732 3.77387 24.3129 3.74951 24.2543C3.72514 24.1958 3.69785 24.1374 3.66763 24.0818C3.63839 24.0253 3.60526 23.9706 3.57017 23.918C3.53508 23.8644 3.49707 23.8127 3.45613 23.764C3.41617 23.7143 3.37231 23.6665 3.32748 23.6217C3.28264 23.5768 3.23489 23.5331 3.18518 23.4931C3.13645 23.4522 3.08479 23.4141 3.03118 23.3791C2.97855 23.344 2.92397 23.3108 2.86744 23.2816C2.81189 23.2513 2.75341 23.2241 2.69493 23.1997C2.63645 23.1754 2.57602 23.1538 2.51559 23.1354C2.45419 23.1169 2.39278 23.1012 2.3304 23.0886C2.26803 23.076 2.20467 23.0663 2.14132 23.0604C2.01364 23.0477 1.88499 23.0477 1.75731 23.0604C1.69493 23.0663 1.6306 23.076 1.56822 23.0886C1.50682 23.1013 1.44444 23.1169 1.38304 23.1354C1.32261 23.1538 1.26218 23.1754 1.2037 23.1997C1.14522 23.2241 1.08674 23.2513 1.03119 23.2816C0.975632 23.3108 0.920076 23.344 0.867445 23.3791C0.813839 23.4141 0.762182 23.4522 0.713449 23.4931C0.663741 23.5331 0.615983 23.5768 0.571149 23.6217C0.526315 23.6665 0.482455 23.7143 0.442494 23.764C0.401559 23.8127 0.363547 23.8644 0.328459 23.918C0.293372 23.9706 0.260233 24.0253 0.230994 24.0818C0.200779 24.1373 0.173489 24.1958 0.149123 24.2543C0.124756 24.3129 0.103314 24.3732 0.0847952 24.4336C0.0662767 24.4941 0.0506822 24.5566 0.0380116 24.6188C0.0253411 24.6812 0.0155945 24.7446 0.00974657 24.8079C0.00292397 24.8722 0 24.9366 0 24.9999C0 25.0632 0.00292397 25.1276 0.00974657 25.1919C0.0155945 25.2543 0.0253411 25.3186 0.0380116 25.381ZM48.0506 4.53213C46.974 4.53213 46.1013 5.40484 46.1013 6.48144V11.7548C44.1725 8.67773 41.5896 6.04889 38.5142 4.05367C34.4755 1.4336 29.7855 0.0487061 24.9512 0.0487061C24.8777 0.0487061 24.8054 0.0535793 24.734 0.0614741C24.6819 0.0672245 24.6291 0.0751193 24.5772 0.0853532C24.3648 0.126679 24.1653 0.203092 23.9835 0.307283C23.9502 0.326093 23.9175 0.345879 23.8857 0.366737C23.8192 0.410304 23.7555 0.457477 23.6949 0.508647C23.6553 0.541688 23.6169 0.57658 23.5806 0.612545C23.5756 0.617418 23.5707 0.622389 23.5658 0.627262C23.5296 0.66391 23.4944 0.702506 23.4612 0.742369C23.4526 0.752506 23.4441 0.762642 23.4358 0.772876C23.4068 0.808744 23.3787 0.846365 23.3521 0.884864C23.3418 0.899679 23.3315 0.914591 23.3216 0.929698C23.3001 0.962544 23.2796 0.996462 23.2602 1.03087C23.1562 1.21235 23.08 1.41157 23.0386 1.62365C23.0284 1.67521 23.0205 1.72746 23.0148 1.77979C23.0137 1.78925 23.0123 1.79861 23.0115 1.80806C23.0048 1.87092 23.0019 1.93535 23.0019 1.99802C23.0019 2.06059 23.0048 2.12414 23.0115 2.18769C23.0124 2.19734 23.0138 2.20689 23.0149 2.21644C23.0205 2.2681 23.0283 2.32044 23.0386 2.3719C23.0801 2.58525 23.1569 2.78545 23.2618 2.9678C23.2801 2.99977 23.2991 3.03125 23.3191 3.06205C23.3302 3.07901 23.3415 3.09578 23.3531 3.11235C23.379 3.14967 23.4061 3.18603 23.4342 3.22082C23.4435 3.23233 23.453 3.24373 23.4625 3.25503C23.4948 3.29363 23.5288 3.33106 23.5639 3.36663C23.57 3.37287 23.5762 3.37901 23.5824 3.38515C23.6181 3.42043 23.6557 3.45464 23.6945 3.487C23.7053 3.49617 23.7161 3.50523 23.7272 3.5141C23.7623 3.54246 23.799 3.56985 23.8366 3.59587C23.8535 3.60757 23.8703 3.61907 23.8876 3.63028C23.9181 3.65006 23.9493 3.66887 23.9808 3.68691C24.1643 3.79256 24.3659 3.86965 24.5808 3.91098C24.6307 3.92092 24.6813 3.92843 24.7314 3.93398C24.742 3.93515 24.7525 3.93661 24.7631 3.93768C24.8262 3.94422 24.8891 3.94714 24.9512 3.94714C32.3234 3.94714 39.1638 7.85814 42.9517 14.0768L38.496 14.0838C37.4194 14.0854 36.5481 14.9594 36.5496 16.036C36.5513 17.1115 37.4236 17.9824 38.4989 17.9824C38.4998 17.9824 38.5009 17.9824 38.5019 17.9824L44.2053 17.9737C45.7586 17.9778 47.2056 17.3827 48.2925 16.2957C49.4001 15.1881 50.0064 13.7014 49.9999 12.1172V6.48144C49.9999 5.40484 49.1272 4.53213 48.0506 4.53213ZM47.5311 30.2611C46.5077 29.9288 45.4073 30.4892 45.075 31.5126C44.7426 32.537 45.3021 33.6364 46.3264 33.9687C46.5272 34.034 46.7299 34.0652 46.9297 34.0652C47.7514 34.0652 48.5155 33.5418 48.7826 32.7182C49.1159 31.6939 48.5555 30.5945 47.5311 30.2611ZM44.805 36.9473C43.9346 36.3137 42.7153 36.5057 42.0818 37.376C41.4483 38.2465 41.6403 39.4657 42.5106 40.0992C42.8566 40.3507 43.2582 40.4725 43.6559 40.4725C44.2582 40.4725 44.8518 40.1938 45.2338 39.6704C45.8674 38.8001 45.6753 37.5808 44.805 36.9473ZM31.5565 45.0282C30.5321 45.3605 29.9717 46.4599 30.304 47.4843C30.5721 48.3079 31.3362 48.8322 32.1578 48.8322C32.3576 48.8322 32.5604 48.8011 32.7602 48.7358C33.7845 48.4035 34.345 47.3041 34.0126 46.2797C33.6802 45.2562 32.5808 44.6958 31.5565 45.0282ZM37.422 42.0351C36.5506 42.6686 36.3586 43.8879 36.9921 44.7582C37.3742 45.2825 37.9678 45.5603 38.5701 45.5603C38.9678 45.5603 39.3693 45.4395 39.7153 45.187C40.5857 44.5535 40.7777 43.3341 40.1442 42.4638C39.5116 41.5935 38.2923 41.4015 37.422 42.0351ZM49.9619 24.6188C49.9492 24.5565 49.9336 24.4941 49.9151 24.4336C49.8966 24.3732 49.8751 24.3129 49.8508 24.2543C49.8264 24.1958 49.7991 24.1374 49.7689 24.0818C49.7397 24.0253 49.7065 23.9706 49.6714 23.918C49.6364 23.8644 49.5983 23.8127 49.5574 23.764C49.5174 23.7143 49.4736 23.6665 49.4288 23.6217C49.3839 23.5768 49.3362 23.5331 49.2865 23.4931C49.2377 23.4522 49.1861 23.4141 49.1325 23.3791C49.0798 23.344 49.0252 23.3108 48.9687 23.2816C48.9132 23.2513 48.8547 23.2241 48.7962 23.1997C48.7377 23.1754 48.6773 23.1538 48.6169 23.1354C48.5555 23.1169 48.4941 23.1012 48.4317 23.0886C48.3693 23.076 48.305 23.0663 48.2426 23.0604C48.1149 23.0477 47.9863 23.0477 47.8586 23.0604C47.7962 23.0663 47.7319 23.076 47.6695 23.0886C47.6081 23.1013 47.5457 23.1169 47.4843 23.1354C47.4239 23.1538 47.3635 23.1754 47.305 23.1997C47.2465 23.2241 47.188 23.2513 47.1325 23.2816C47.0769 23.3108 47.0213 23.344 46.9687 23.3791C46.9151 23.4141 46.8635 23.4522 46.8147 23.4931C46.765 23.5331 46.7173 23.5768 46.6724 23.6217C46.6276 23.6665 46.5837 23.7143 46.5438 23.764C46.5038 23.8127 46.4648 23.8644 46.4297 23.918C46.3946 23.9706 46.3615 24.0253 46.3323 24.0818C46.3021 24.1373 46.2748 24.1958 46.2504 24.2543C46.226 24.3129 46.2046 24.3732 46.1861 24.4336C46.1675 24.4941 46.152 24.5566 46.1393 24.6188C46.1266 24.6812 46.1178 24.7446 46.111 24.8079C46.1052 24.8721 46.1013 24.9365 46.1013 24.9999C46.1013 25.0632 46.1052 25.1276 46.111 25.1919C46.1178 25.2543 46.1266 25.3186 46.1393 25.381C46.152 25.4424 46.1675 25.5048 46.1861 25.5661C46.2046 25.6265 46.226 25.687 46.2504 25.7454C46.2748 25.804 46.3021 25.8624 46.3323 25.9181C46.3615 25.9736 46.3946 26.0292 46.4297 26.0818C46.4648 26.1354 46.5038 26.1871 46.5438 26.2358C46.5837 26.2855 46.6276 26.3333 46.6724 26.3781C46.7173 26.4229 46.765 26.4668 46.8147 26.5067C46.8635 26.5467 46.9151 26.5857 46.9687 26.6208C47.0213 26.6559 47.0769 26.689 47.1325 26.7182C47.188 26.7485 47.2465 26.7757 47.305 26.8001C47.3635 26.8245 47.4239 26.8459 47.4843 26.8644C47.5457 26.8829 47.6081 26.8986 47.6695 26.9111C47.7319 26.9239 47.7962 26.9335 47.8586 26.9394C47.9229 26.9462 47.9872 26.9492 48.0506 26.9492C48.1139 26.9492 48.1783 26.9463 48.2426 26.9394C48.305 26.9335 48.3693 26.9239 48.4317 26.9111C48.4941 26.8985 48.5555 26.8829 48.6169 26.8644C48.6773 26.8459 48.7377 26.8245 48.7962 26.8001C48.8547 26.7757 48.9132 26.7485 48.9687 26.7182C49.0252 26.689 49.0798 26.6559 49.1325 26.6208C49.1861 26.5857 49.2377 26.5467 49.2865 26.5067C49.3362 26.4668 49.3839 26.4229 49.4288 26.3781C49.4736 26.3333 49.5174 26.2855 49.5574 26.2358C49.5983 26.1871 49.6364 26.1354 49.6714 26.0818C49.7065 26.0292 49.7397 25.9737 49.7689 25.9181C49.7991 25.8625 49.8264 25.804 49.8508 25.7454C49.8751 25.687 49.8966 25.6265 49.9151 25.5661C49.9336 25.5047 49.9492 25.4423 49.9619 25.381C49.9746 25.3185 49.9843 25.2542 49.9902 25.1919C49.997 25.1276 49.9999 25.0633 49.9999 24.9999C49.9999 24.9366 49.997 24.8721 49.9902 24.8079C49.9843 24.7455 49.9746 24.6812 49.9619 24.6188ZM26.5668 49.2233C26.5941 49.1894 26.6203 49.1543 26.6455 49.1181C26.6578 49.1004 26.6699 49.0825 26.6818 49.0644C26.7017 49.0339 26.7205 49.0027 26.7385 48.971C26.8439 48.7878 26.9207 48.5864 26.9619 48.372C26.9717 48.3225 26.9792 48.2722 26.9847 48.2225C26.986 48.2116 26.9875 48.2009 26.9885 48.1899C26.995 48.1276 26.9979 48.0652 26.9979 48.0039C26.9979 48.0033 26.998 48.0027 26.998 48.002C26.998 48.0013 26.998 48.0007 26.998 48.0001C26.9979 47.9386 26.9951 47.8762 26.9886 47.814C26.9876 47.8031 26.9861 47.7924 26.9848 47.7816C26.9793 47.7317 26.9718 47.6815 26.962 47.6319C26.9208 47.4176 26.8441 47.2164 26.7388 47.0333C26.7203 47.0008 26.701 46.9687 26.6806 46.9375C26.6695 46.9205 26.6582 46.9039 26.6466 46.8873C26.6207 46.8499 26.5935 46.8134 26.5653 46.7785C26.5564 46.7673 26.5472 46.7564 26.538 46.7455C26.5056 46.7067 26.4714 46.6692 26.4361 46.6334C26.43 46.6272 26.4237 46.621 26.4175 46.6149C26.3821 46.58 26.345 46.5462 26.3066 46.5141C26.2453 46.4623 26.1806 46.4143 26.1131 46.3702C26.0818 46.3497 26.0497 46.3303 26.017 46.3118C25.8349 46.2073 25.6351 46.1308 25.4223 46.0895C25.3707 46.0792 25.3184 46.0713 25.266 46.0656C25.1946 46.0577 25.1224 46.0528 25.0488 46.0528C17.6767 46.0528 10.8362 42.1418 7.04823 35.9231L11.504 35.9164C12.5806 35.9147 13.452 35.0407 13.4504 33.9641C13.4487 32.8886 12.5764 32.0177 11.501 32.0177C11.5001 32.0177 11.499 32.0177 11.498 32.0177L5.7958 32.0263C4.24697 32.0223 2.79454 32.6173 1.70731 33.7045C0.599901 34.8117 -0.00643274 36.2985 9.74657e-05 37.8826V43.5184C9.74657e-05 44.595 0.872805 45.4677 1.94941 45.4677C3.02602 45.4677 3.89873 44.595 3.89873 43.5184V38.2451C5.82747 41.3221 8.41041 43.9511 11.4858 45.9462C15.5245 48.5663 20.2145 49.9511 25.0487 49.9511C25.1107 49.9511 25.1745 49.9482 25.2365 49.9417C25.2473 49.9407 25.2579 49.9392 25.2688 49.938C25.3185 49.9325 25.3688 49.9249 25.4183 49.9152C25.6337 49.8738 25.8357 49.7966 26.0196 49.6906C26.0505 49.673 26.0809 49.6546 26.1108 49.6353C26.1287 49.6236 26.1464 49.6117 26.164 49.5994C26.2006 49.5739 26.2362 49.5473 26.2704 49.5198C26.2826 49.5099 26.2947 49.4999 26.3067 49.4897C26.3443 49.4583 26.3806 49.4251 26.4153 49.3909C26.4229 49.3835 26.4303 49.3761 26.4377 49.3686C26.4719 49.334 26.5049 49.2975 26.5363 49.26C26.5466 49.2478 26.5568 49.2356 26.5668 49.2233ZM30.0863 35.8186H20.0111C18.1132 35.8186 16.5692 34.2699 16.5692 32.366V31.201C16.5692 28.711 18.9899 26.6616 20.7575 25.1652C20.8238 25.109 20.889 25.0537 20.9525 24.9999C20.889 24.946 20.8237 24.8909 20.7575 24.8346C18.9899 23.3382 16.5692 21.2888 16.5692 18.7989V17.6339C16.5692 15.7301 18.1132 14.1812 20.0111 14.1812H30.0862C31.9841 14.1812 33.5281 15.7301 33.5281 17.6339V18.7989C33.5281 21.2888 31.1073 23.3382 29.3398 24.8346C29.2754 24.8892 29.212 24.9428 29.1503 24.9951C29.2155 25.0505 29.2827 25.1073 29.351 25.1652C31.1186 26.6616 33.5393 28.711 33.5393 31.201V32.366C33.5393 32.4734 33.5306 32.5787 33.514 32.6812C33.3546 34.4378 31.8781 35.8186 30.0863 35.8186ZM21.2295 19.9672C21.8241 20.6297 22.5958 21.2829 23.2765 21.8592C23.5007 22.0491 23.7126 22.2285 23.9078 22.3993C24.5187 22.9347 24.9186 23.6581 25.0487 24.4405C25.1787 23.6581 25.5786 22.9347 26.1895 22.3994C26.3846 22.2285 26.5965 22.0491 26.8209 21.8592C27.5017 21.2829 28.2732 20.6297 28.8679 19.9672C29.5977 19.1541 29.6295 18.7988 29.6297 18.7953V18.08H20.4679V18.799C20.468 18.7989 20.4999 19.1543 21.2295 19.9672ZM29.6407 31.201C29.6405 31.201 29.6086 30.8456 28.879 30.0328C28.2844 29.3703 27.5127 28.7171 26.832 28.1408C26.6553 27.9911 26.4862 27.848 26.327 27.7104C26.2797 27.6759 26.2338 27.6393 26.1894 27.6004C25.5786 27.0651 25.1788 26.3417 25.0488 25.5595C24.9188 26.3417 24.5189 27.0651 23.908 27.6004C23.7128 27.7715 23.5009 27.9509 23.2766 28.1408C22.5958 28.7171 21.8242 29.3703 21.2296 30.0328C20.4998 30.8458 20.468 31.2012 20.4678 31.2047V31.92H29.6408L29.6407 31.201Z" fill="url(#paint0_linear_1448_114)"/>
</g>
<defs>
<linearGradient id="paint0_linear_1448_114" x1="0" y1="25" x2="49.9999" y2="25" gradientUnits="userSpaceOnUse">
<stop stop-color="#00F2FE"/>
<stop offset="0.0208" stop-color="#03EFFE"/>
<stop offset="0.2931" stop-color="#24D2FE"/>
<stop offset="0.5538" stop-color="#3CBDFE"/>
<stop offset="0.7956" stop-color="#4AB0FE"/>
<stop offset="1" stop-color="#4FACFE"/>
</linearGradient>
<clipPath id="clip0_1448_114">
<rect width="50" height="50" fill="white"/>
</clipPath>
</defs>
</svg>
