<svg width="50" height="50" viewBox="0 0 50 50" fill="none" xmlns="http://www.w3.org/2000/svg">
<g clip-path="url(#clip0_1316_1226)">
<path d="M43.1861 31.5249L43.9272 29.0344C44.1074 28.4307 43.88 27.7784 43.3636 27.4165L38.5642 24.0563C38.0463 23.6958 37.3582 23.7043 36.8519 24.0791L34.7705 25.6227C27.2531 22.4098 18.2725 23.1822 11.4031 27.6697L9.08281 26.5081C8.52207 26.2235 7.83975 26.3336 7.39199 26.7827L3.24775 30.927C2.80146 31.3733 2.69131 32.0542 2.97314 32.6178L4.13477 34.9381C1.49102 38.9836 0 43.6657 0 48.5352C0 49.3448 0.655176 50 1.46484 50H48.5352C49.3448 50 50 49.3448 50 48.5352C50 42.1594 47.5248 36.1541 43.1861 31.5249Z" fill="url(#paint0_linear_1316_1226)"/>
<path d="M29.868 38.3356L28.0482 39.6484C27.7775 39.8437 27.6641 40.1899 27.7676 40.506L28.5004 42.6301C28.5314 42.7247 28.5433 42.8171 28.5393 42.9053C28.5134 43.4758 27.7983 43.866 27.2739 43.4877L25.4542 42.1746C25.3188 42.0769 25.1594 42.0281 25.0001 42.0281C24.8407 42.0281 24.6813 42.0769 24.546 42.1746L22.7262 43.4877C22.2018 43.866 21.4833 43.4758 21.4606 42.9053C21.4572 42.8171 21.4694 42.7247 21.5003 42.6301L22.2325 40.506C22.3359 40.1899 22.2226 39.8437 21.9518 39.6484L20.132 38.3356C19.5266 37.8988 19.8377 36.8628 20.5861 36.8628H22.8355C23.1702 36.8628 23.4669 36.7339 23.5703 36.4179L24.2653 34.28C24.381 33.9267 24.6905 33.75 25.0001 33.75C25.3096 33.75 25.6191 33.9267 25.7348 34.28L26.4299 36.4179C26.5333 36.7339 26.8299 36.8628 27.1646 36.8628H29.414C30.1624 36.8628 30.4735 37.8988 29.868 38.3356ZM40.3051 42.608L38.4852 43.9208C38.2145 44.1162 38.1011 44.4624 38.2046 44.7784L38.9374 46.9026C38.9684 46.9972 38.9803 47.0896 38.9763 47.1777C38.9504 47.7482 38.2354 48.1385 37.7109 47.7602L35.8912 46.447C35.7558 46.3494 35.5964 46.3005 35.4371 46.3005C35.2777 46.3005 35.1184 46.3494 34.983 46.447L33.1632 47.7602C32.6388 48.1385 31.9204 47.7482 31.8976 47.1777C31.8942 47.0896 31.9064 46.9971 31.9373 46.9026L32.6695 44.7784C32.773 44.4624 32.6596 44.1162 32.3889 43.9208L30.569 42.608C29.9636 42.1713 30.2747 41.1353 31.0231 41.1353H33.2725C33.6072 41.1353 33.9039 41.0064 34.0073 40.6904L34.7023 38.5525C34.818 38.1992 35.1275 38.0225 35.4371 38.0225C35.7466 38.0225 36.0562 38.1992 36.1718 38.5525L36.8669 40.6904C36.9703 41.0064 37.2669 41.1353 37.6016 41.1353H39.851C40.5994 41.1353 40.9105 42.1713 40.3051 42.608ZM19.431 42.608L17.6112 43.9208C17.3405 44.1162 17.2271 44.4624 17.3306 44.7784L18.0634 46.9026C18.0944 46.9972 18.1063 47.0896 18.1023 47.1777C18.0764 47.7482 17.3613 48.1385 16.8369 47.7602L15.0171 46.447C14.8817 46.3494 14.7224 46.3005 14.563 46.3005C14.4036 46.3005 14.2443 46.3494 14.1089 46.447L12.2891 47.7602C11.7647 48.1385 11.0463 47.7482 11.0236 47.1777C11.0201 47.0896 11.0323 46.9971 11.0632 46.9026L11.7954 44.7784C11.8989 44.4624 11.7855 44.1162 11.5148 43.9208L9.69495 42.608C9.08948 42.1713 9.40063 41.1353 10.149 41.1353H12.3984C12.7332 41.1353 13.0298 41.0064 13.1332 40.6904L13.8282 38.5525C13.9439 38.1992 14.2534 38.0225 14.563 38.0225C14.8726 38.0225 15.1821 38.1992 15.2977 38.5525L15.9928 40.6904C16.0963 41.0064 16.3928 41.1353 16.7275 41.1353H18.9769C19.7253 41.1353 20.0365 42.1713 19.431 42.608Z" fill="#FFC801"/>
<g clip-path="url(#clip1_1316_1226)">
<path d="M31.4749 19.3289C31.1171 18.9711 30.538 18.9711 30.1802 19.3289L26.2959 23.2132C25.9381 23.571 25.9381 24.1501 26.2959 24.5079L27.5907 25.8027C28.1122 26.3242 28.3942 27.0095 28.3847 27.7574C28.3942 28.48 28.1123 29.1653 27.5907 29.6869C27.2328 30.0447 27.2328 30.6238 27.5907 30.9816C27.9485 31.3395 28.5276 31.3395 28.8854 30.9816L32.7697 27.0973C34.5544 25.3126 34.5544 22.4083 32.7697 20.6236L31.4749 19.3289ZM15.9379 18.0342C16.4594 17.5126 17.1447 17.2307 17.8927 17.2402C18.6152 17.2307 19.3006 17.5126 19.8222 18.0342L21.1169 19.3289C21.4747 19.6868 22.0538 19.6868 22.4116 19.3289L26.2959 15.4446C26.6538 15.0869 26.6538 14.5077 26.2959 14.1499L25.0012 12.8552C23.2164 11.0704 20.3121 11.0704 18.5274 12.8552L14.6431 16.7394C14.2853 17.0973 14.2853 17.6764 14.6431 18.0342C15.001 18.392 15.5801 18.392 15.9379 18.0342ZM22.9943 21.3358C21.2205 20.1575 18.7993 20.3517 17.2326 21.9184C15.6789 23.4722 14.5914 29.0654 14.3973 30.1661C14.3324 30.4637 14.4361 30.7747 14.6431 30.9817C14.8502 31.1887 15.1611 31.2925 15.4588 31.2275C16.5594 31.0334 22.1527 29.9459 23.7064 28.3922C25.273 26.8256 25.4673 24.4044 24.289 22.6306L22.9943 21.3358ZM44.4194 0.0402806L36.6509 2.62976C36.5214 2.68152 36.4048 2.74627 36.3012 2.84985L38.2434 7.38147L42.775 9.32361C42.8786 9.22003 42.9433 9.10345 42.9951 8.97394L45.5845 1.20544C45.8047 0.545286 45.0795 -0.179873 44.4194 0.0402806ZM35.6538 7.38147L25.6485 17.3868C24.9348 18.1005 24.9341 19.2619 25.6485 19.9763C26.3629 20.6907 27.5242 20.6901 28.2381 19.9763L38.2434 9.97101C38.9571 9.25726 38.9578 8.09588 38.2434 7.38153C37.5289 6.66717 36.3676 6.66772 35.6538 7.38147Z" fill="url(#paint1_linear_1316_1226)"/>
<path d="M19.8224 24.5079C19.4599 24.8704 19.4599 25.4401 19.8224 25.8026C20.185 26.1652 20.7547 26.1651 21.1172 25.8026L24.2893 22.6304C24.1212 22.3845 23.9267 22.1384 23.7067 21.9183C23.4867 21.6984 23.2405 21.5038 22.9946 21.3357L19.8224 24.5079ZM36.3015 2.84979L21.1172 18.0341C20.7547 18.3965 20.7546 18.9662 21.1172 19.3288L23.7067 21.9183L26.2962 24.5078C26.6588 24.8704 27.2285 24.8703 27.591 24.5078L42.7753 9.32349L36.3015 2.84979ZM27.5909 19.3289C27.2331 19.6867 26.654 19.6867 26.2962 19.3289C25.9383 18.971 25.9383 18.3919 26.2962 18.0341L36.3015 8.02881C36.6593 7.67102 37.2384 7.67102 37.5962 8.02881C37.9541 8.38666 37.9541 8.96576 37.5962 9.32355L27.5909 19.3289Z" fill="url(#paint2_linear_1316_1226)"/>
</g>
</g>
<defs>
<linearGradient id="paint0_linear_1316_1226" x1="25" y1="23.662" x2="25" y2="50" gradientUnits="userSpaceOnUse">
<stop stop-color="#FFFDD1"/>
<stop offset="1" stop-color="#FFEEAE"/>
</linearGradient>
<linearGradient id="paint1_linear_1316_1226" x1="14.6455" y1="30.976" x2="45.3298" y2="0.291684" gradientUnits="userSpaceOnUse">
<stop stop-color="#FFE59A"/>
<stop offset="1" stop-color="#FFFFD5"/>
</linearGradient>
<linearGradient id="paint2_linear_1316_1226" x1="19.824" y1="25.7977" x2="39.5369" y2="6.08481" gradientUnits="userSpaceOnUse">
<stop stop-color="#FD5900"/>
<stop offset="1" stop-color="#FFDE00"/>
</linearGradient>
<clipPath id="clip0_1316_1226">
<rect width="50" height="50" fill="white"/>
</clipPath>
<clipPath id="clip1_1316_1226">
<rect width="31.25" height="31.25" fill="white" transform="translate(14.375)"/>
</clipPath>
</defs>
</svg>
