<svg width="50" height="50" viewBox="0 0 50 50" fill="none" xmlns="http://www.w3.org/2000/svg">
<g clip-path="url(#clip0_1316_1287)">
<path d="M43.1861 31.5249L43.9272 29.0344C44.1074 28.4307 43.88 27.7784 43.3636 27.4165L38.5642 24.0563C38.0463 23.6958 37.3582 23.7043 36.8519 24.0791L34.7705 25.6227C27.2531 22.4098 18.2725 23.1822 11.4031 27.6697L9.08281 26.5081C8.52207 26.2235 7.83975 26.3336 7.39199 26.7827L3.24775 30.927C2.80146 31.3733 2.69131 32.0542 2.97314 32.6178L4.13477 34.9381C1.49102 38.9836 0 43.6657 0 48.5352C0 49.3448 0.655176 50 1.46484 50H48.5352C49.3448 50 50 49.3448 50 48.5352C50 42.1594 47.5248 36.1541 43.1861 31.5249Z" fill="#CE59FF"/>
<path d="M28.5547 42.6562C27.7457 42.6562 27.0898 42.0006 27.0898 41.1914C27.0898 40.3824 27.7457 39.7266 28.5547 39.7266C29.3637 39.7266 30.0195 40.3824 30.0195 41.1914C30.0195 42.0006 29.3637 42.6562 28.5547 42.6562ZM10.3516 37.8516C9.54258 37.8516 8.88672 37.1959 8.88672 36.3867C8.88672 35.5777 9.54258 34.9219 10.3516 34.9219C11.1605 34.9219 11.8164 35.5777 11.8164 36.3867C11.8164 37.1959 11.1605 37.8516 10.3516 37.8516ZM16.2109 46.6406C13.7877 46.6406 11.8164 44.6693 11.8164 42.2461C11.8164 39.8229 13.7877 37.8516 16.2109 37.8516C18.6342 37.8516 20.6055 39.8229 20.6055 42.2461C20.6055 44.6693 18.6342 46.6406 16.2109 46.6406ZM37.3438 43.7109C34.9205 43.7109 32.9492 41.7396 32.9492 39.3164C32.9492 36.8932 34.9205 34.9219 37.3438 34.9219C39.767 34.9219 41.7383 36.8932 41.7383 39.3164C41.7383 41.7396 39.767 43.7109 37.3438 43.7109Z" fill="#FFDEFD"/>
<g clip-path="url(#clip1_1316_1287)">
<path d="M35.1426 9.35271C34.7855 9.17022 34.3596 9.18937 34.0184 9.40001C33.6771 9.60957 33.4697 9.9824 33.4697 10.3823V12.597C33.4697 13.6885 32.2555 14.3258 31.3575 13.7247C30.8629 13.3822 30.6387 12.7435 30.8112 12.178L31.2494 10.7698C32.644 6.26372 30.2332 1.55937 25.762 0.0599765C25.3013 -0.0943692 24.7966 0.0554392 24.4936 0.433959C24.1906 0.812479 24.1579 1.34081 24.4102 1.75424L25.0602 2.8222C25.9139 4.20309 25.462 6.03832 24.0272 6.87318C22.7914 7.59638 21.1884 7.30015 20.2893 6.17021L19.3669 5.03926C19.1213 4.73511 18.7372 4.57399 18.3463 4.62129C17.9576 4.6652 17.6163 4.90176 17.4417 5.25213C16.1485 7.83863 16.207 10.5051 17.614 12.9688C18.08 13.7724 17.7536 14.7853 16.8897 15.0765C15.9553 15.3856 15.0129 14.7004 15.0129 13.7281V12.6894C15.0129 12.2231 14.7324 11.8017 14.3009 11.6238C13.8706 11.4435 13.3738 11.5426 13.0437 11.8738C10.535 14.3826 9.71824 17.2868 10.5451 20.7553C11.2142 23.557 12.7216 26.0961 14.9025 28.0968C15.2585 28.4247 15.7812 28.4933 16.2092 28.2737C16.6396 28.0529 16.8851 27.5877 16.8265 27.1078C16.8096 26.9658 16.7894 26.807 16.7894 26.647C16.7894 24.661 18.2775 23.1638 20.25 23.1638C22.8196 23.1638 23.7163 26.2268 23.7512 26.353C24.0261 27.3556 25.7024 27.3556 25.9772 26.353C25.9851 26.3215 26.8818 23.1638 29.4784 23.1638C31.4836 23.1638 32.9391 24.6283 32.9391 26.647C32.9391 27.1517 32.8354 27.6023 32.6146 28.0631C32.3859 28.5385 32.5099 29.1085 32.9142 29.4476C33.3242 29.7885 33.9095 29.8039 34.3303 29.496C38.0771 26.7845 40.3425 22.3944 40.391 17.7543C40.391 17.7441 40.391 17.734 40.391 17.725C40.3381 14.1652 38.3273 10.9568 35.1426 9.35271Z" fill="url(#paint0_linear_1316_1287)"/>
<path d="M29.4784 20.8567C27.1871 20.8567 25.7339 22.1646 24.8642 23.4285C23.9945 22.1645 22.5413 20.8567 20.25 20.8567C16.9616 20.8567 14.4822 23.3463 14.4822 26.647C14.4822 26.9039 14.5092 27.1596 14.5374 27.3917C14.8461 29.8441 16.6215 31.3356 18.6785 33.0625C20.4055 34.5124 22.3622 36.2185 23.8673 38.8016C24.0735 39.1565 24.453 39.375 24.8631 39.375H24.8643C25.2743 39.375 25.654 39.1576 25.8601 38.8039C27.3696 36.2207 29.3151 34.5191 31.0319 33.0727C32.5268 31.8121 33.8279 30.716 34.5748 29.2583C34.6199 29.1974 34.6604 29.1321 34.6942 29.0612C35.066 28.2884 35.2463 27.4987 35.2463 26.647C35.2462 23.3463 32.7667 20.8567 29.4784 20.8567Z" fill="url(#paint1_linear_1316_1287)"/>
</g>
</g>
<defs>
<linearGradient id="paint0_linear_1316_1287" x1="25.3125" y1="29.7157" x2="25.3125" y2="-7.89941e-06" gradientUnits="userSpaceOnUse">
<stop stop-color="#A93AFF"/>
<stop offset="1" stop-color="#FF81FF"/>
</linearGradient>
<linearGradient id="paint1_linear_1316_1287" x1="24.8642" y1="39.375" x2="24.8642" y2="20.8567" gradientUnits="userSpaceOnUse">
<stop stop-color="#FFBEF9"/>
<stop offset="1" stop-color="#FFF1FF"/>
</linearGradient>
<clipPath id="clip0_1316_1287">
<rect width="50" height="50" fill="white"/>
</clipPath>
<clipPath id="clip1_1316_1287">
<rect width="39.375" height="39.375" fill="white" transform="translate(5.625)"/>
</clipPath>
</defs>
</svg>
