<svg width="50" height="50" viewBox="0 0 50 50" fill="none" xmlns="http://www.w3.org/2000/svg">
<g id="t1" clip-path="url(#clip0_1316_1176)">
<g id="Group">
<g id="Group_2">
<g id="Group_3">
<path id="Vector" d="M43.1861 31.5249L43.9271 29.0344C44.1074 28.4307 43.88 27.7784 43.3636 27.4165L38.5642 24.0562C38.0463 23.6958 37.3582 23.7043 36.8519 24.0791L34.7705 25.6227C27.2531 22.4098 18.2725 23.1822 11.4031 27.6697L9.08281 26.5081C8.52207 26.2234 7.83975 26.3336 7.39199 26.7827L3.24775 30.927C2.80146 31.3732 2.69131 32.0542 2.97314 32.6178L4.13477 34.9381C1.49102 38.9836 0 43.6657 0 48.5352C0 49.3448 0.655176 50 1.46484 50H48.5352C49.3448 50 50 49.3448 50 48.5352C50 42.1594 47.5248 36.1541 43.1861 31.5249ZM26.4648 14.6484H39.6484C40.1464 14.6484 40.6153 14.3847 40.9082 13.9453C41.172 13.5352 41.172 12.9785 40.9669 12.539L38.3594 7.32422L40.9668 2.10928C41.1719 1.66992 41.1719 1.11328 40.9081 0.703125C40.6152 0.263574 40.1464 0 39.6483 0H25C24.1796 0 23.5352 0.644434 23.5352 1.46484V14.6484L25 17.6758L26.4648 14.6484Z" fill="url(#paint0_linear_1316_1176)"/>
</g>
</g>
<g id="Group_4">
<g id="Group_5">
<path id="Vector_2" d="M27.9297 38.2812C27.1207 38.2812 26.4648 38.9369 26.4648 39.7461C26.4648 40.5551 27.1207 41.2109 27.9297 41.2109C28.7387 41.2109 29.3945 40.5551 29.3945 39.7461C29.3945 38.9369 28.7387 38.2812 27.9297 38.2812ZM10.3516 41.2109C9.54258 41.2109 8.88672 41.8666 8.88672 42.6758C8.88672 43.4848 9.54258 44.1406 10.3516 44.1406C11.1605 44.1406 11.8164 43.4848 11.8164 42.6758C11.8164 41.8666 11.1605 41.2109 10.3516 41.2109ZM16.2109 32.4219C13.7877 32.4219 11.8164 34.3932 11.8164 36.8164C11.8164 39.2396 13.7877 41.2109 16.2109 41.2109C18.6342 41.2109 20.6055 39.2396 20.6055 36.8164C20.6055 34.3932 18.6342 32.4219 16.2109 32.4219ZM36.7188 35.3516C34.2955 35.3516 32.3242 37.3229 32.3242 39.7461C32.3242 42.1693 34.2955 44.1406 36.7188 44.1406C39.142 44.1406 41.1133 42.1693 41.1133 39.7461C41.1133 37.3229 39.142 35.3516 36.7188 35.3516ZM29.3745 31.4392C29.5075 30.6409 28.9683 29.8856 28.1715 29.7525C27.614 29.6592 27.0356 29.6557 26.4648 29.6125V14.6484H23.5352V29.614C22.9646 29.6572 22.3888 29.6606 21.8285 29.754C21.0317 29.887 20.4924 30.6424 20.6255 31.4406C20.7615 32.2506 21.5347 32.7801 22.3121 32.6437C24.0802 32.3476 25.9428 32.3519 27.688 32.6422C28.5019 32.7853 29.2415 32.2359 29.3745 31.4392Z" fill="url(#paint1_linear_1316_1176)"/>
</g>
</g>
</g>
</g>
<defs>
<linearGradient id="paint0_linear_1316_1176" x1="25" y1="50" x2="25" y2="0" gradientUnits="userSpaceOnUse">
<stop stop-color="#00B59C"/>
<stop offset="1" stop-color="#9CFFAC"/>
</linearGradient>
<linearGradient id="paint1_linear_1316_1176" x1="25" y1="44.1406" x2="25" y2="14.6484" gradientUnits="userSpaceOnUse">
<stop stop-color="#C3FFE8"/>
<stop offset="0.9973" stop-color="#F0FFF4"/>
</linearGradient>
<clipPath id="clip0_1316_1176">
<rect width="50" height="50" fill="white"/>
</clipPath>
</defs>
</svg>
