<svg width="50" height="50" viewBox="0 0 50 50" fill="none" xmlns="http://www.w3.org/2000/svg">
<g id="icon 2" clip-path="url(#clip0_1448_101)">
<path id="Vector" d="M41.9871 40.6061C42.7499 41.3688 42.7499 42.6056 41.9871 43.3683C39.7025 45.6527 35.9853 45.6527 33.7007 43.3683L33.0052 42.6728C32.8222 42.4896 32.5401 42.4394 32.2869 42.5446L32.2447 42.562C31.9988 42.6636 31.8358 42.8981 31.8358 43.1569V44.1406C31.8358 47.3715 29.2073 50 25.9765 50H24.0233C20.7925 50 18.164 47.3715 18.164 44.1406V43.1569C18.164 42.8982 18.001 42.6636 17.7487 42.5595L17.7129 42.5447C17.4596 42.4395 17.1775 42.4897 16.9946 42.6729L16.2991 43.3684C14.0146 45.6528 10.2973 45.6528 8.0127 43.3684L6.63184 41.987C5.5251 40.8805 4.91562 39.4091 4.91562 37.8438C4.91562 36.2788 5.5251 34.8073 6.63184 33.7007L7.32734 33.0052C7.51025 32.8223 7.56055 32.5402 7.45537 32.287L7.43965 32.2488C7.33643 31.9987 7.10195 31.8358 6.84316 31.8358H5.85938C2.62852 31.8358 0 29.2073 0 25.9765V24.0233C0 20.7925 2.62852 18.164 5.85938 18.164H6.84316C7.10186 18.164 7.33633 18.0011 7.44053 17.7488L7.45527 17.7133C7.56064 17.4596 7.51035 17.1777 7.32744 16.9948L6.63184 16.2992C5.5251 15.1926 4.91562 13.7212 4.91562 12.1561C4.91562 10.5909 5.5251 9.11943 6.63184 8.01279L8.01279 6.63184C9.11953 5.5251 10.5909 4.91562 12.1561 4.91562C13.7212 4.91562 15.1926 5.5251 16.2993 6.63184L16.9948 7.32725C17.1779 7.51035 17.4598 7.56045 17.7131 7.45537L17.7553 7.43799C18.0012 7.33643 18.1642 7.10186 18.1642 6.84307V5.85938C18.1642 2.62852 20.7927 0 24.0235 0H25.9767C29.2075 0 31.836 2.62852 31.836 5.85938V6.84307C31.836 7.10176 31.999 7.33643 32.2513 7.44053L32.2871 7.45527C32.5404 7.56035 32.8224 7.51025 33.0054 7.32715L33.7009 6.63164C34.4637 5.86885 35.7003 5.86885 36.463 6.63164C37.2257 7.39443 37.2258 8.63115 36.463 9.39385L35.7675 10.0894C34.4628 11.3938 32.5101 11.7764 30.7916 11.0639L30.7665 11.0536C29.0406 10.3409 27.9297 8.68916 27.9297 6.84307V5.85938C27.9297 4.78242 27.0535 3.90625 25.9766 3.90625H24.0234C22.9465 3.90625 22.0703 4.78242 22.0703 5.85938V6.84307C22.0703 8.68906 20.9594 10.3408 19.24 11.051L19.2086 11.064C17.4901 11.7768 15.5373 11.3941 14.2327 10.0895L13.5371 9.39395C13.1683 9.025 12.6777 8.82187 12.1561 8.82187C11.6344 8.82187 11.1439 9.025 10.775 9.39395L9.39395 10.775C9.025 11.1439 8.82187 11.6344 8.82187 12.1562C8.82187 12.6778 9.0251 13.1683 9.39395 13.5372L10.0895 14.2327C11.3948 15.538 11.7769 17.4924 11.0628 19.2115L11.052 19.2378C10.341 20.9593 8.68936 22.0703 6.84316 22.0703H5.85938C4.78242 22.0703 3.90625 22.9465 3.90625 24.0234V25.9766C3.90625 27.0535 4.78242 27.9297 5.85938 27.9297H6.84307C8.68926 27.9297 10.341 29.0407 11.051 30.7602L11.0652 30.7945C11.7769 32.5077 11.3948 34.462 10.0895 35.7674L9.39385 36.4629C9.025 36.8317 8.82187 37.3223 8.82187 37.8439C8.82187 38.3657 9.025 38.8561 9.39385 39.225L10.775 40.6063C11.5364 41.3677 12.7755 41.368 13.5371 40.6062L14.2326 39.9106C15.5372 38.6062 17.4899 38.2236 19.2085 38.9361L19.2336 38.9464C20.9594 39.6591 22.0703 41.3108 22.0703 43.1569V44.1406C22.0703 45.2176 22.9465 46.0938 24.0234 46.0938H25.9766C27.0535 46.0938 27.9297 45.2176 27.9297 44.1406V43.1569C27.9297 41.3109 29.0406 39.6592 30.76 38.949L30.7915 38.936C32.51 38.2234 34.4628 38.6061 35.7674 39.9105L36.4629 40.6061C37.2244 41.3677 38.4635 41.3677 39.225 40.6061C39.9878 39.8435 41.2244 39.8435 41.9871 40.6061ZM44.1406 18.1641C43.0619 18.1641 42.1875 19.0385 42.1875 20.1172C42.1875 21.1959 43.0619 22.0703 44.1406 22.0703C45.2176 22.0703 46.0938 22.9465 46.0938 24.0234V25.9766C46.0938 27.0535 45.2176 27.9297 44.1406 27.9297H43.1569C41.3107 27.9297 39.659 29.0407 38.9481 30.7623L38.9373 30.7887C38.2232 32.5078 38.6054 34.462 39.9106 35.7674C40.2921 36.1488 40.7918 36.3395 41.2918 36.3395C41.7916 36.3395 42.2915 36.1487 42.6729 35.7675C43.4356 35.0047 43.4356 33.7681 42.673 33.0054C42.4899 32.8224 42.4396 32.5403 42.5473 32.2812L42.5597 32.2511C42.6638 31.9988 42.8982 31.8359 43.157 31.8359H44.1406C47.3715 31.8359 50 29.2074 50 25.9766V24.0234C50 20.7926 47.3715 18.1641 44.1406 18.1641ZM25.0484 28.1233C24.5171 28.1451 24.0104 27.9545 23.6301 27.5929L16.6836 20.9344C15.9047 20.1879 14.6685 20.2141 13.9221 20.9929C13.1757 21.7717 13.2019 23.008 13.9806 23.7544L20.9329 30.4184C22.0324 31.4637 23.4555 32.0312 24.9629 32.0312C25.0436 32.0312 25.1244 32.0296 25.2055 32.0264C26.8024 31.9621 28.2689 31.2711 29.3351 30.0803C29.3583 30.0544 29.3808 30.0279 29.4025 30.0009L47.8959 6.98506C48.5715 6.14424 48.4376 4.91484 47.5968 4.23916C46.7558 3.56348 45.5265 3.69746 44.8509 4.53828L26.3956 27.5067C26.0429 27.884 25.5662 28.1026 25.0484 28.1233Z" fill="url(#paint0_linear_1448_101)"/>
</g>
<defs>
<linearGradient id="paint0_linear_1448_101" x1="0" y1="25" x2="50" y2="25" gradientUnits="userSpaceOnUse">
<stop stop-color="#00F2FE"/>
<stop offset="0.0208" stop-color="#03EFFE"/>
<stop offset="0.2931" stop-color="#24D2FE"/>
<stop offset="0.5538" stop-color="#3CBDFE"/>
<stop offset="0.7956" stop-color="#4AB0FE"/>
<stop offset="1" stop-color="#4FACFE"/>
</linearGradient>
<clipPath id="clip0_1448_101">
<rect width="50" height="50" fill="white"/>
</clipPath>
</defs>
</svg>
