<svg width="50" height="50" viewBox="0 0 50 50" fill="none" xmlns="http://www.w3.org/2000/svg">
<g id="icon 3">
<path id="Vector" d="M42.1387 24.707V3.90625H9.81445C8.7375 3.90625 7.86133 4.78242 7.86133 5.85938V38.6172C8.47266 38.4004 9.12979 38.2812 9.81445 38.2812H11.7676V9.76562C11.7676 8.68691 12.642 7.8125 13.7207 7.8125C14.7994 7.8125 15.6738 8.68691 15.6738 9.76562V38.2812H42.1387V34.4727C42.1387 33.3939 43.0131 32.5195 44.0918 32.5195C45.1705 32.5195 46.0449 33.3939 46.0449 34.4727V40.2344C46.0449 41.3131 45.1705 42.1875 44.0918 42.1875H9.81445C8.7375 42.1875 7.86133 43.0637 7.86133 44.1406C7.86133 45.2176 8.7375 46.0938 9.81445 46.0938H44.0918C45.1705 46.0938 46.0449 46.9682 46.0449 48.0469C46.0449 49.1256 45.1705 50 44.0918 50H9.81445C6.58359 50 3.95508 47.3715 3.95508 44.1406V5.85938C3.95508 2.62852 6.58359 0 9.81445 0H44.0918C45.1705 0 46.0449 0.874414 46.0449 1.95312V24.707C46.0449 25.7857 45.1705 26.6602 44.0918 26.6602C43.0131 26.6602 42.1387 25.7857 42.1387 24.707ZM28.5645 29.1016C27.4857 29.1016 26.6113 29.976 26.6113 31.0547C26.6113 32.1334 27.4857 33.0078 28.5645 33.0078C29.6432 33.0078 30.5176 32.1334 30.5176 31.0547C30.5176 29.976 29.6432 29.1016 28.5645 29.1016ZM30.6146 24.679C30.6146 24.0459 30.9762 23.4823 31.5358 23.2434C34.24 22.089 35.987 19.4431 35.9863 16.5029C35.9863 16.4755 35.9857 16.4483 35.9846 16.4212C35.9405 12.4206 32.6723 9.17969 28.6614 9.17969C24.6231 9.17969 21.3379 12.465 21.3379 16.5032C21.3379 17.5819 22.2123 18.4563 23.291 18.4563C24.3697 18.4563 25.2441 17.5819 25.2441 16.5032C25.2441 14.6189 26.7771 13.0859 28.6614 13.0859C30.5458 13.0859 32.0788 14.6189 32.0788 16.5032C32.0788 16.5221 32.0791 16.5409 32.0796 16.5597C32.058 17.91 31.2475 19.119 30.0021 19.6508C28.0013 20.505 26.7083 22.4786 26.7083 24.6789V24.8047C26.7083 25.8834 27.5827 26.7578 28.6614 26.7578C29.7401 26.7578 30.6146 25.8834 30.6146 24.8047V24.679Z" fill="url(#paint0_linear_1448_81)"/>
</g>
<defs>
<linearGradient id="paint0_linear_1448_81" x1="3.95508" y1="25" x2="46.0449" y2="25" gradientUnits="userSpaceOnUse">
<stop stop-color="#00F2FE"/>
<stop offset="0.0208" stop-color="#03EFFE"/>
<stop offset="0.2931" stop-color="#24D2FE"/>
<stop offset="0.5538" stop-color="#3CBDFE"/>
<stop offset="0.7956" stop-color="#4AB0FE"/>
<stop offset="1" stop-color="#4FACFE"/>
</linearGradient>
</defs>
</svg>
