<svg width="50" height="50" viewBox="0 0 50 50" fill="none" xmlns="http://www.w3.org/2000/svg">
<g id="icon 1" clip-path="url(#clip0_1304_47)">
<path id="Vector" d="M8.09346 30.383C8.42715 30.6063 8.80449 30.7131 9.17783 30.7131C9.80772 30.7131 10.4262 30.4088 10.8028 29.846C13.9588 25.13 19.2345 22.3145 24.9152 22.3145C30.5792 22.3145 35.8462 25.1171 39.0044 29.8115C39.6066 30.7065 40.8202 30.9439 41.7151 30.3418C42.6102 29.7396 42.8476 28.526 42.2454 27.6311C39.7221 23.8805 36.1043 21.113 31.9701 19.6325C34.4494 17.6072 36.0352 14.5274 36.0352 11.084C36.0352 4.99912 31.0849 0.0488281 25 0.0488281C18.9151 0.0488281 13.9648 4.99912 13.9648 11.084C13.9648 14.5027 15.5275 17.5632 17.9762 19.589C13.7773 21.064 10.1052 23.8649 7.55645 27.6735C6.95654 28.57 7.19697 29.7831 8.09346 30.383ZM25 3.95508C28.9309 3.95508 32.1289 7.15313 32.1289 11.084C32.1289 15.0148 28.9309 18.2129 25 18.2129C21.0691 18.2129 17.8711 15.0148 17.8711 11.084C17.8711 7.15313 21.0691 3.95508 25 3.95508ZM32.7889 34.6318L29.8771 36.7323C29.4439 37.0448 29.2626 37.5988 29.4281 38.1045L30.6007 41.5031C30.6502 41.6545 30.6692 41.8023 30.6629 41.9434C30.6214 42.8562 29.4773 43.4806 28.6383 42.8753L25.7267 40.7742C25.5101 40.618 25.2551 40.5398 25.0001 40.5398C24.7451 40.5398 24.4901 40.618 24.2735 40.7742L21.3619 42.8753C20.5229 43.4806 19.3733 42.8562 19.337 41.9434C19.3314 41.8023 19.351 41.6544 19.4005 41.5031L20.572 38.1045C20.7375 37.5988 20.5562 37.0448 20.1229 36.7323L17.2112 34.6318C16.2425 33.933 16.7403 32.2754 17.9378 32.2754H21.5368C22.0724 32.2754 22.547 32.0692 22.7124 31.5636L23.8245 28.143C24.0096 27.5776 24.5048 27.2949 25.0001 27.2949C25.4954 27.2949 25.9906 27.5776 26.1757 28.143L27.2878 31.5636C27.4533 32.0692 27.9278 32.2754 28.4634 32.2754H32.0624C33.2598 32.2754 33.7576 33.933 32.7889 34.6318ZM49.4881 41.4678L46.5764 43.5683C46.1432 43.8808 45.9618 44.4348 46.1273 44.9404L47.2999 48.3391C47.3494 48.4904 47.3685 48.6383 47.3621 48.7793C47.3206 49.6921 46.1766 50.3165 45.3375 49.7112L42.4259 47.6102C42.2093 47.4539 41.9543 47.3758 41.6993 47.3758C41.4443 47.3758 41.1894 47.4539 40.9728 47.6102L38.0611 49.7112C37.2221 50.3165 36.0726 49.6921 36.0362 48.7793C36.0307 48.6383 36.0502 48.4903 36.0997 48.3391L37.2712 44.9404C37.4367 44.4348 37.2554 43.8808 36.8222 43.5683L33.9105 41.4678C32.9417 40.7689 33.4396 39.1113 34.637 39.1113H38.236C38.7716 39.1113 39.2462 38.9052 39.4116 38.3995L40.5237 34.9789C40.7088 34.4136 41.204 34.1309 41.6993 34.1309C42.1946 34.1309 42.6898 34.4136 42.8749 34.9789L43.987 38.3995C44.1525 38.9052 44.6271 39.1113 45.1626 39.1113H48.7616C49.959 39.1113 50.4568 40.7689 49.4881 41.4678ZM16.0896 41.4678L13.1779 43.5683C12.7447 43.8808 12.5634 44.4348 12.7289 44.9404L13.9015 48.3391C13.951 48.4904 13.97 48.6383 13.9637 48.7793C13.9222 49.6921 12.7781 50.3165 11.9391 49.7112L9.02734 47.6102C8.81074 47.4539 8.55576 47.3758 8.30078 47.3758C8.0458 47.3758 7.79082 47.4539 7.57422 47.6102L4.6626 49.7112C3.82354 50.3165 2.67402 49.6921 2.6377 48.7793C2.63213 48.6383 2.65166 48.4903 2.70117 48.3391L3.87266 44.9404C4.03818 44.4348 3.85684 43.8808 3.42363 43.5683L0.511914 41.4678C-0.456836 40.7689 0.0410155 39.1113 1.23848 39.1113H4.8375C5.37305 39.1113 5.84766 38.9052 6.01309 38.3995L7.1252 34.9789C7.31025 34.4136 7.80547 34.1309 8.30078 34.1309C8.79609 34.1309 9.29131 34.4136 9.47637 34.9789L10.5885 38.3995C10.754 38.9052 11.2285 39.1113 11.7641 39.1113H15.3631C16.5605 39.1113 17.0584 40.7689 16.0896 41.4678Z" fill="url(#paint0_linear_1304_47)"/>
</g>
<defs>
<linearGradient id="paint0_linear_1304_47" x1="-1.0494e-07" y1="25" x2="50" y2="25" gradientUnits="userSpaceOnUse">
<stop stop-color="#00F2FE"/>
<stop offset="0.0208" stop-color="#03EFFE"/>
<stop offset="0.2931" stop-color="#24D2FE"/>
<stop offset="0.5538" stop-color="#3CBDFE"/>
<stop offset="0.7956" stop-color="#4AB0FE"/>
<stop offset="1" stop-color="#4FACFE"/>
</linearGradient>
<clipPath id="clip0_1304_47">
<rect width="50" height="50" fill="white"/>
</clipPath>
</defs>
</svg>
