<svg width="196" height="50" viewBox="0 0 196 50" fill="none" xmlns="http://www.w3.org/2000/svg">
<g clip-path="url(#clip0_1311_532)">
<path fill-rule="evenodd" clip-rule="evenodd" d="M25 0C29.9445 0 34.778 1.46622 38.8893 4.21326C43.0005 6.96029 46.2048 10.8648 48.097 15.4329C49.9892 20.0011 50.4843 25.0277 49.5196 29.8773C48.555 34.7268 46.174 39.1814 42.6777 42.6777C39.1814 46.174 34.7268 48.555 29.8773 49.5196C25.0277 50.4843 20.0011 49.9892 15.4329 48.097C10.8648 46.2048 6.96029 43.0005 4.21326 38.8893C1.46622 34.778 0 29.9445 0 25C0 18.3696 2.63392 12.0107 7.32233 7.32233C12.0107 2.63392 18.3696 0 25 0ZM25 4C29.1534 4 33.2135 5.23163 36.667 7.53914C40.1204 9.84665 42.812 13.1264 44.4015 16.9636C45.9909 20.8009 46.4068 25.0233 45.5965 29.0969C44.7862 33.1705 42.7861 36.9123 39.8492 39.8492C36.9123 42.7861 33.1705 44.7862 29.0969 45.5965C25.0233 46.4068 20.8009 45.9909 16.9636 44.4015C13.1264 42.812 9.84665 40.1204 7.53914 36.667C5.23163 33.2135 4 29.1534 4 25C4 19.4305 6.21249 14.089 10.1508 10.1508C14.089 6.21249 19.4305 4 25 4ZM25 6C28.7578 6 32.4313 7.11433 35.5558 9.20208C38.6804 11.2898 41.1156 14.2572 42.5537 17.729C43.9918 21.2008 44.368 25.0211 43.6349 28.7067C42.9018 32.3924 41.0922 35.7778 38.435 38.435C35.7778 41.0922 32.3924 42.9018 28.7067 43.6349C25.0211 44.368 21.2008 43.9918 17.729 42.5537C14.2572 41.1156 11.2898 38.6804 9.20208 35.5558C7.11433 32.4313 6 28.7578 6 25C6 19.9609 8.00178 15.1282 11.565 11.565C15.1282 8.00178 19.9609 6 25 6Z" fill="#FFEA7F"/>
<path fill-rule="evenodd" clip-rule="evenodd" d="M29.225 19.5C28.293 18.603 27.0554 18.093 25.762 18.073C24.8591 18.0716 23.9752 18.3318 23.217 18.822C22.3926 19.3599 21.7403 20.1236 21.338 21.022C21.181 21.3626 21.0532 21.7158 20.956 22.078H23.045V24.04H20.663C20.658 24.173 20.645 24.301 20.645 24.44C20.646 24.9625 20.6881 25.4841 20.771 26H23.045V27.957H21.345C21.5779 28.5266 21.8773 29.0667 22.237 29.566C22.7006 30.2408 23.3242 30.7902 24.0521 31.1651C24.78 31.5399 25.5894 31.7285 26.408 31.714C27.5257 31.7068 28.6188 31.3849 29.562 30.785C30.8526 29.9915 31.9649 28.9394 32.829 27.695L35 29.287C33.951 30.8266 32.6426 32.1723 31.133 33.264C29.3377 34.418 27.244 35.0214 25.11 35C23.3656 35.0283 21.6466 34.5801 20.1382 33.7036C18.6298 32.8271 17.3891 31.5555 16.55 30.026C16.1859 29.3709 15.8952 28.6778 15.683 27.959H13.474L12.649 26H15.287C15.2455 25.6291 15.2228 25.2562 15.219 24.883C15.219 24.597 15.248 24.321 15.269 24.043H11.824L11 22.084H15.593C15.805 21.297 16.1151 20.5397 16.516 19.83C17.3457 18.3449 18.5666 17.1157 20.046 16.276C21.564 15.4189 23.2818 14.9786 25.025 15C26.7279 14.9622 28.4118 15.363 29.915 16.164L30.377 15.333H32.366L34.285 22.275L31.677 23.023C31.0606 21.7209 30.232 20.5303 29.225 19.5Z" fill="#062640"/>
<path d="M80.606 18.454C80.606 19.35 80.4333 20.26 80.088 21.184C79.752 22.108 79.2387 22.9573 78.548 23.732C77.8667 24.5067 76.9987 25.1367 75.944 25.622C74.8987 26.098 73.6573 26.336 72.22 26.336C70.3067 26.336 68.6733 25.8833 67.32 24.978C65.9667 24.0633 64.9307 22.8033 64.212 21.198C63.5027 19.5927 63.148 17.7493 63.148 15.668C63.148 13.5867 63.5027 11.748 64.212 10.152C64.9307 8.556 65.9667 7.30533 67.32 6.4C68.6733 5.49467 70.3067 5.042 72.22 5.042C73.816 5.042 75.174 5.33133 76.294 5.91C77.4233 6.48867 78.324 7.24 78.996 8.164C79.6773 9.088 80.1393 10.0633 80.382 11.09C80.5313 11.7153 80.606 12.3173 80.606 12.896H76.252C76.252 12.616 76.2287 12.3453 76.182 12.084C76.0887 11.4027 75.874 10.796 75.538 10.264C75.202 9.732 74.754 9.312 74.194 9.004C73.6433 8.68667 72.9853 8.528 72.22 8.528C71.324 8.528 70.526 8.78467 69.826 9.298C69.126 9.81133 68.5753 10.5953 68.174 11.65C67.7727 12.7047 67.572 14.044 67.572 15.668C67.572 17.3013 67.7727 18.65 68.174 19.714C68.5753 20.7687 69.126 21.5573 69.826 22.08C70.526 22.5933 71.324 22.85 72.22 22.85C72.864 22.85 73.4333 22.7333 73.928 22.5C74.432 22.2667 74.852 21.9447 75.188 21.534C75.5333 21.1233 75.7947 20.652 75.972 20.12C76.1587 19.588 76.252 19.0327 76.252 18.454H80.606ZM90.8842 26.322C89.2789 26.322 87.8649 25.9907 86.6422 25.328C85.4195 24.6653 84.4629 23.7553 83.7722 22.598C83.0909 21.4313 82.7502 20.0873 82.7502 18.566C82.7502 17.054 83.0909 15.7193 83.7722 14.562C84.4629 13.3953 85.4195 12.49 86.6422 11.846C87.8649 11.1927 89.2789 10.866 90.8842 10.866C92.4895 10.866 93.9035 11.1927 95.1262 11.846C96.3489 12.49 97.3009 13.3953 97.9822 14.562C98.6729 15.7193 99.0182 17.054 99.0182 18.566C99.0182 20.0873 98.6729 21.4313 97.9822 22.598C97.3009 23.7553 96.3489 24.6653 95.1262 25.328C93.9035 25.9907 92.4895 26.322 90.8842 26.322ZM90.8842 22.878C91.6402 22.878 92.2982 22.7007 92.8582 22.346C93.4182 21.9913 93.8522 21.492 94.1602 20.848C94.4682 20.1947 94.6222 19.434 94.6222 18.566C94.6222 17.698 94.4682 16.9467 94.1602 16.312C93.8522 15.668 93.4182 15.1733 92.8582 14.828C92.2982 14.4827 91.6402 14.31 90.8842 14.31C90.1375 14.31 89.4795 14.4827 88.9102 14.828C88.3502 15.1733 87.9162 15.668 87.6082 16.312C87.3002 16.9467 87.1462 17.698 87.1462 18.566C87.1462 19.434 87.3002 20.1947 87.6082 20.848C87.9162 21.492 88.3502 21.9913 88.9102 22.346C89.4795 22.7007 90.1375 22.878 90.8842 22.878ZM111.011 26V20.246C111.011 19.6953 111.011 19.2193 111.011 18.818C111.011 18.4073 111.011 18.0667 111.011 17.796C111.011 17.4133 110.988 17.0353 110.941 16.662C110.904 16.2887 110.81 15.9433 110.661 15.626C110.521 15.2993 110.302 15.0427 110.003 14.856C109.704 14.66 109.298 14.562 108.785 14.562C108.309 14.562 107.898 14.6647 107.553 14.87C107.208 15.066 106.923 15.3413 106.699 15.696C106.484 16.0413 106.326 16.4427 106.223 16.9C106.12 17.348 106.069 17.8193 106.069 18.314L104.879 17.334C104.879 16.074 105.108 14.9587 105.565 13.988C106.022 13.008 106.671 12.2427 107.511 11.692C108.36 11.132 109.364 10.852 110.521 10.852C111.762 10.852 112.728 11.118 113.419 11.65C114.119 12.1727 114.609 12.8727 114.889 13.75C115.178 14.618 115.323 15.5793 115.323 16.634C115.323 17.0353 115.323 17.5767 115.323 18.258C115.323 18.9393 115.323 19.756 115.323 20.708V26H111.011ZM101.729 26V11.132H106.069V26H101.729ZM120.251 26V20.26C120.251 19.6907 120.251 19.2007 120.251 18.79C120.251 18.3793 120.251 18.0387 120.251 17.768C120.251 17.3573 120.228 16.9653 120.181 16.592C120.134 16.2093 120.036 15.864 119.887 15.556C119.738 15.248 119.514 15.0053 119.215 14.828C118.916 14.6507 118.51 14.562 117.997 14.562C117.521 14.562 117.11 14.6647 116.765 14.87C116.429 15.066 116.154 15.3367 115.939 15.682C115.724 16.0273 115.566 16.4193 115.463 16.858C115.37 17.2967 115.323 17.754 115.323 18.23L114.133 17.264C114.133 16.0227 114.357 14.9213 114.805 13.96C115.262 12.9987 115.906 12.2427 116.737 11.692C117.577 11.132 118.58 10.852 119.747 10.852C120.96 10.852 121.917 11.1087 122.617 11.622C123.326 12.1353 123.83 12.8213 124.129 13.68C124.437 14.5293 124.591 15.4813 124.591 16.536C124.591 16.956 124.591 17.4973 124.591 18.16C124.591 18.8227 124.591 19.63 124.591 20.582V26H120.251ZM127.842 32.118V11.132H132.196V32.118H127.842ZM136.788 26.336C135.612 26.336 134.534 26.0233 133.554 25.398C132.574 24.7633 131.79 23.914 131.202 22.85C130.614 21.7767 130.32 20.5727 130.32 19.238C130.32 19.2007 130.32 19.168 130.32 19.14C130.32 19.1027 130.32 19.0607 130.32 19.014L132.196 18.972C132.196 19 132.196 19.028 132.196 19.056C132.196 19.084 132.196 19.112 132.196 19.14C132.196 19.8307 132.364 20.4373 132.7 20.96C133.036 21.4733 133.47 21.87 134.002 22.15C134.534 22.43 135.09 22.57 135.668 22.57C136.62 22.57 137.446 22.2433 138.146 21.59C138.856 20.9273 139.21 19.896 139.21 18.496C139.21 17.096 138.86 16.0787 138.16 15.444C137.46 14.8 136.63 14.478 135.668 14.478C135.09 14.478 134.534 14.618 134.002 14.898C133.47 15.1687 133.036 15.556 132.7 16.06C132.364 16.564 132.196 17.166 132.196 17.866L130.32 17.754C130.32 16.41 130.614 15.2247 131.202 14.198C131.79 13.162 132.574 12.3453 133.554 11.748C134.534 11.1507 135.612 10.852 136.788 10.852C137.992 10.852 139.117 11.1507 140.162 11.748C141.208 12.336 142.052 13.1993 142.696 14.338C143.35 15.4767 143.676 16.8627 143.676 18.496C143.676 20.204 143.359 21.6413 142.724 22.808C142.09 23.9747 141.25 24.8567 140.204 25.454C139.159 26.042 138.02 26.336 136.788 26.336ZM151.422 26.308C150.339 26.308 149.373 26.1353 148.524 25.79C147.684 25.4447 147.026 24.9453 146.55 24.292C146.074 23.6387 145.836 22.8453 145.836 21.912C145.836 20.8573 146.125 19.9987 146.704 19.336C147.282 18.6733 148.048 18.1693 149 17.824C149.961 17.4693 151.002 17.236 152.122 17.124C153.755 16.9653 154.88 16.8207 155.496 16.69C156.121 16.5593 156.434 16.3307 156.434 16.004C156.434 15.9947 156.434 15.9853 156.434 15.976C156.434 15.4253 156.168 14.9913 155.636 14.674C155.113 14.3567 154.38 14.198 153.438 14.198C152.439 14.198 151.674 14.38 151.142 14.744C150.619 15.0987 150.358 15.6447 150.358 16.382H146.088C146.088 15.1873 146.41 14.1793 147.054 13.358C147.707 12.5367 148.589 11.916 149.7 11.496C150.81 11.0667 152.066 10.852 153.466 10.852C154.772 10.852 155.981 11.0527 157.092 11.454C158.202 11.846 159.094 12.4387 159.766 13.232C160.447 14.0253 160.788 15.0333 160.788 16.256C160.788 16.452 160.788 16.648 160.788 16.844C160.788 17.0307 160.788 17.222 160.788 17.418V22.682C160.788 23.0647 160.797 23.4333 160.816 23.788C160.844 24.1333 160.9 24.4507 160.984 24.74C161.077 25.0667 161.194 25.3373 161.334 25.552C161.474 25.7667 161.59 25.916 161.684 26H157.414C157.348 25.9347 157.246 25.7993 157.106 25.594C156.975 25.3887 156.863 25.1507 156.77 24.88C156.658 24.5533 156.574 24.2267 156.518 23.9C156.471 23.564 156.448 23.172 156.448 22.724L157.344 23.34C157.082 23.956 156.658 24.488 156.07 24.936C155.491 25.3747 154.8 25.7153 153.998 25.958C153.204 26.1913 152.346 26.308 151.422 26.308ZM152.584 23.06C153.265 23.06 153.9 22.9387 154.488 22.696C155.085 22.444 155.57 22.052 155.944 21.52C156.317 20.988 156.504 20.2927 156.504 19.434V17.936L157.582 18.986C156.966 19.21 156.252 19.3967 155.44 19.546C154.637 19.686 153.834 19.798 153.032 19.882C152.08 19.9753 151.366 20.1387 150.89 20.372C150.423 20.596 150.19 20.9787 150.19 21.52C150.19 22.0333 150.39 22.4207 150.792 22.682C151.193 22.934 151.79 23.06 152.584 23.06ZM174.436 26V19.686C174.436 19.3313 174.436 19.0093 174.436 18.72C174.436 18.4307 174.436 18.1693 174.436 17.936C174.436 17.32 174.356 16.76 174.198 16.256C174.039 15.7427 173.754 15.332 173.344 15.024C172.933 14.716 172.34 14.562 171.566 14.562C170.894 14.562 170.31 14.716 169.816 15.024C169.33 15.332 168.957 15.7613 168.696 16.312C168.434 16.8627 168.304 17.4973 168.304 18.216L167.1 17.348C167.1 16.06 167.38 14.9307 167.94 13.96C168.5 12.9893 169.256 12.2287 170.208 11.678C171.169 11.1273 172.233 10.852 173.4 10.852C174.622 10.852 175.626 11.0993 176.41 11.594C177.203 12.0793 177.791 12.7607 178.174 13.638C178.566 14.506 178.762 15.5233 178.762 16.69C178.762 17.166 178.762 17.698 178.762 18.286C178.762 18.874 178.762 19.476 178.762 20.092V26H174.436ZM163.964 26V11.132H168.304V26H163.964ZM182.778 32.426C182.311 32.426 181.891 32.4073 181.518 32.37C181.154 32.342 180.925 32.3093 180.832 32.272V28.982C180.953 29.038 181.163 29.08 181.462 29.108C181.77 29.1453 182.096 29.164 182.442 29.164C182.899 29.164 183.31 29.0707 183.674 28.884C184.047 28.7067 184.364 28.45 184.626 28.114C184.896 27.7873 185.106 27.4 185.256 26.952L185.508 26.196L180.384 11.132H184.906L188.14 23.326H187.636L190.744 11.132H195.21L190.1 26.742C189.717 27.918 189.246 28.9307 188.686 29.78C188.126 30.6293 187.379 31.2827 186.446 31.74C185.512 32.1973 184.29 32.426 182.778 32.426Z" fill="white"/>
<path d="M65.064 45V34.675H68.452C69.3527 34.675 70.0433 34.892 70.524 35.326C71.0047 35.76 71.245 36.4343 71.245 37.349C71.245 37.909 71.14 38.3827 70.93 38.77C70.72 39.1573 70.4703 39.4583 70.181 39.673C69.8917 39.883 69.628 40.002 69.39 40.03C69.6327 40.0487 69.8753 40.1163 70.118 40.233C70.3607 40.3497 70.5637 40.5293 70.727 40.772C70.8903 41.0147 70.972 41.3367 70.972 41.738C70.972 42.1393 70.972 42.5523 70.972 42.977C70.972 43.4017 70.972 43.817 70.972 44.223C70.972 44.4143 70.986 44.5823 71.014 44.727C71.0467 44.867 71.0793 44.958 71.112 45H70.237C70.209 44.9533 70.1787 44.8623 70.146 44.727C70.118 44.587 70.104 44.419 70.104 44.223C70.104 43.8403 70.104 43.446 70.104 43.04C70.104 42.634 70.104 42.2397 70.104 41.857C70.104 41.3623 69.9453 41.0007 69.628 40.772C69.3153 40.5433 68.8837 40.429 68.333 40.429H65.659L65.918 40.093V45H65.064ZM65.918 40.023L65.659 39.659H68.347C68.711 39.659 69.0447 39.568 69.348 39.386C69.6513 39.1993 69.894 38.938 70.076 38.602C70.2627 38.266 70.356 37.8717 70.356 37.419C70.356 36.7097 70.1763 36.2033 69.817 35.9C69.4577 35.592 68.935 35.438 68.249 35.438H65.638L65.918 35.06V40.023ZM76.7811 45.126C76.0531 45.126 75.4091 44.9603 74.8491 44.629C74.2891 44.293 73.8505 43.8333 73.5331 43.25C73.2158 42.6667 73.0571 42.0087 73.0571 41.276C73.0571 40.5387 73.2158 39.883 73.5331 39.309C73.8505 38.735 74.2891 38.2847 74.8491 37.958C75.4091 37.6313 76.0531 37.468 76.7811 37.468C77.5091 37.468 78.1531 37.6313 78.7131 37.958C79.2731 38.2847 79.7118 38.735 80.0291 39.309C80.3465 39.883 80.5051 40.5387 80.5051 41.276C80.5051 42.0087 80.3465 42.6667 80.0291 43.25C79.7118 43.8333 79.2731 44.293 78.7131 44.629C78.1531 44.9603 77.5091 45.126 76.7811 45.126ZM76.7811 44.335C77.3411 44.335 77.8335 44.2043 78.2581 43.943C78.6875 43.6817 79.0235 43.32 79.2661 42.858C79.5088 42.396 79.6301 41.8687 79.6301 41.276C79.6301 40.6787 79.5088 40.1537 79.2661 39.701C79.0235 39.2483 78.6875 38.896 78.2581 38.644C77.8335 38.3873 77.3411 38.259 76.7811 38.259C76.2258 38.259 75.7335 38.3873 75.3041 38.644C74.8748 38.896 74.5388 39.2483 74.2961 39.701C74.0535 40.1537 73.9321 40.6787 73.9321 41.276C73.9321 41.8687 74.0535 42.396 74.2961 42.858C74.5388 43.32 74.8748 43.6817 75.3041 43.943C75.7335 44.2043 76.2258 44.335 76.7811 44.335ZM85.1083 45.133C84.5389 45.133 84.0419 45.0467 83.6173 44.874C83.1926 44.7013 82.8636 44.4517 82.6303 44.125C82.4016 43.7937 82.2873 43.3947 82.2873 42.928C82.2873 42.4567 82.4086 42.0647 82.6513 41.752C82.8939 41.4347 83.2393 41.1873 83.6873 41.01C84.1399 40.8327 84.6743 40.7137 85.2903 40.653C86.2376 40.555 86.9166 40.457 87.3273 40.359C87.7426 40.2563 87.9503 40.093 87.9503 39.869C87.9503 39.855 87.9503 39.841 87.9503 39.827C87.9503 39.8083 87.9503 39.7897 87.9503 39.771C87.9503 39.2903 87.7543 38.917 87.3623 38.651C86.9703 38.385 86.4126 38.252 85.6893 38.252C84.9333 38.252 84.3429 38.4013 83.9183 38.7C83.4983 38.9987 83.2883 39.442 83.2883 40.03H82.4343C82.4343 39.4933 82.5696 39.0337 82.8403 38.651C83.1109 38.2637 83.4913 37.9697 83.9813 37.769C84.4713 37.5637 85.0429 37.461 85.6963 37.461C86.2843 37.461 86.8139 37.552 87.2853 37.734C87.7566 37.916 88.1299 38.182 88.4053 38.532C88.6853 38.8773 88.8253 39.3043 88.8253 39.813C88.8253 39.911 88.8253 40.009 88.8253 40.107C88.8253 40.2003 88.8253 40.296 88.8253 40.394V43.684C88.8253 43.8427 88.8323 43.9943 88.8463 44.139C88.8603 44.2837 88.8813 44.4097 88.9093 44.517C88.9513 44.6523 88.9956 44.7597 89.0423 44.839C89.0889 44.9183 89.1263 44.972 89.1543 45H88.2793C88.2606 44.9813 88.2303 44.9323 88.1883 44.853C88.1463 44.769 88.1043 44.671 88.0623 44.559C88.0249 44.4423 87.9993 44.3117 87.9853 44.167C87.9713 44.0223 87.9643 43.8473 87.9643 43.642L88.1043 43.747C87.9549 44.0223 87.7379 44.265 87.4533 44.475C87.1686 44.6803 86.8279 44.8413 86.4313 44.958C86.0346 45.0747 85.5936 45.133 85.1083 45.133ZM85.2413 44.356C85.7453 44.356 86.2003 44.2743 86.6063 44.111C87.0169 43.943 87.3436 43.705 87.5863 43.397C87.8289 43.0843 87.9503 42.7063 87.9503 42.263V40.527L88.1393 40.849C87.8686 40.9843 87.4999 41.094 87.0333 41.178C86.5666 41.2573 86.0603 41.3227 85.5143 41.374C84.7443 41.4487 84.1586 41.5957 83.7573 41.815C83.3606 42.0343 83.1623 42.3913 83.1623 42.886C83.1623 43.362 83.3373 43.726 83.6873 43.978C84.0373 44.23 84.5553 44.356 85.2413 44.356ZM93.9418 45.133C93.3352 45.133 92.7845 44.986 92.2898 44.692C91.7998 44.3933 91.4102 43.957 91.1208 43.383C90.8362 42.809 90.6938 42.109 90.6938 41.283C90.6938 40.4663 90.8385 39.7733 91.1278 39.204C91.4218 38.6347 91.8138 38.203 92.3038 37.909C92.7938 37.6103 93.3398 37.461 93.9418 37.461C94.5112 37.461 95.0385 37.5963 95.5238 37.867C96.0138 38.133 96.4058 38.4993 96.6998 38.966C96.9938 39.4327 97.1408 39.96 97.1408 40.548C97.1408 40.5667 97.1408 40.5853 97.1408 40.604C97.1408 40.618 97.1408 40.632 97.1408 40.646L96.5038 40.66C96.5038 40.646 96.5038 40.632 96.5038 40.618C96.5038 40.5993 96.5038 40.583 96.5038 40.569C96.5038 40.1443 96.3895 39.757 96.1608 39.407C95.9322 39.057 95.6312 38.777 95.2578 38.567C94.8892 38.357 94.4878 38.252 94.0538 38.252C93.3352 38.252 92.7425 38.5063 92.2758 39.015C91.8138 39.5237 91.5828 40.2797 91.5828 41.283C91.5828 42.2817 91.8138 43.0377 92.2758 43.551C92.7425 44.0597 93.3352 44.314 94.0538 44.314C94.4972 44.314 94.9032 44.209 95.2718 43.999C95.6452 43.7843 95.9438 43.4973 96.1678 43.138C96.3918 42.7787 96.5038 42.3773 96.5038 41.934L97.1408 41.948C97.1408 42.55 96.9962 43.0913 96.7068 43.572C96.4175 44.0527 96.0302 44.433 95.5448 44.713C95.0642 44.993 94.5298 45.133 93.9418 45.133ZM96.5038 45V34.059H97.3718V45H96.5038ZM105.788 45.112C105.578 45.112 105.373 45.0863 105.172 45.035C104.976 44.9837 104.799 44.8927 104.64 44.762C104.486 44.6267 104.365 44.4423 104.276 44.209C104.187 43.9757 104.143 43.6793 104.143 43.32C104.143 43.222 104.143 43.1217 104.143 43.019C104.143 42.9117 104.143 42.7997 104.143 42.683V38.329H102.351V37.566H103.639C103.76 37.566 103.856 37.5613 103.926 37.552C103.996 37.5427 104.045 37.5193 104.073 37.482C104.106 37.4447 104.124 37.3863 104.129 37.307C104.138 37.2277 104.143 37.118 104.143 36.978V35.165H105.011V37.566H107.391V38.329H105.011V42.396C105.011 42.508 105.011 42.6153 105.011 42.718C105.011 42.8207 105.011 42.9163 105.011 43.005C105.011 43.425 105.072 43.754 105.193 43.992C105.319 44.23 105.555 44.349 105.9 44.349C106.031 44.349 106.159 44.3373 106.285 44.314C106.411 44.2907 106.507 44.265 106.572 44.237V44.993C106.493 45.0257 106.383 45.0537 106.243 45.077C106.103 45.1003 105.951 45.112 105.788 45.112ZM112.178 45.126C111.45 45.126 110.806 44.9603 110.246 44.629C109.686 44.293 109.247 43.8333 108.93 43.25C108.612 42.6667 108.454 42.0087 108.454 41.276C108.454 40.5387 108.612 39.883 108.93 39.309C109.247 38.735 109.686 38.2847 110.246 37.958C110.806 37.6313 111.45 37.468 112.178 37.468C112.906 37.468 113.55 37.6313 114.11 37.958C114.67 38.2847 115.108 38.735 115.426 39.309C115.743 39.883 115.902 40.5387 115.902 41.276C115.902 42.0087 115.743 42.6667 115.426 43.25C115.108 43.8333 114.67 44.293 114.11 44.629C113.55 44.9603 112.906 45.126 112.178 45.126ZM112.178 44.335C112.738 44.335 113.23 44.2043 113.655 43.943C114.084 43.6817 114.42 43.32 114.663 42.858C114.905 42.396 115.027 41.8687 115.027 41.276C115.027 40.6787 114.905 40.1537 114.663 39.701C114.42 39.2483 114.084 38.896 113.655 38.644C113.23 38.3873 112.738 38.259 112.178 38.259C111.622 38.259 111.13 38.3873 110.701 38.644C110.271 38.896 109.935 39.2483 109.693 39.701C109.45 40.1537 109.329 40.6787 109.329 41.276C109.329 41.8687 109.45 42.396 109.693 42.858C109.935 43.32 110.271 43.6817 110.701 43.943C111.13 44.2043 111.622 44.335 112.178 44.335ZM128.569 34.675H130.053V45H129.227V35.368L129.255 35.382L126.385 45H125.125L122.248 35.375L122.276 35.361V45H121.45V34.675H122.934L125.762 44.335H125.734L128.569 34.675ZM132.491 45V37.566H133.345V45H132.491ZM132.925 35.69C132.743 35.69 132.587 35.6387 132.456 35.536C132.326 35.4287 132.26 35.2863 132.26 35.109C132.26 34.9363 132.326 34.7987 132.456 34.696C132.587 34.5887 132.743 34.535 132.925 34.535C133.103 34.535 133.257 34.5887 133.387 34.696C133.518 34.7987 133.583 34.9363 133.583 35.109C133.583 35.2863 133.518 35.4287 133.387 35.536C133.257 35.6387 133.103 35.69 132.925 35.69ZM136.751 34.059V45H135.897V34.059H136.751ZM140.128 34.059V45H139.274V34.059H140.128ZM142.608 45V37.566H143.462V45H142.608ZM143.042 35.69C142.86 35.69 142.704 35.6387 142.573 35.536C142.443 35.4287 142.377 35.2863 142.377 35.109C142.377 34.9363 142.443 34.7987 142.573 34.696C142.704 34.5887 142.86 34.535 143.042 34.535C143.22 34.535 143.374 34.5887 143.504 34.696C143.635 34.7987 143.7 34.9363 143.7 35.109C143.7 35.2863 143.635 35.4287 143.504 35.536C143.374 35.6387 143.22 35.69 143.042 35.69ZM149.297 45.126C148.569 45.126 147.925 44.9603 147.365 44.629C146.805 44.293 146.366 43.8333 146.049 43.25C145.731 42.6667 145.573 42.0087 145.573 41.276C145.573 40.5387 145.731 39.883 146.049 39.309C146.366 38.735 146.805 38.2847 147.365 37.958C147.925 37.6313 148.569 37.468 149.297 37.468C150.025 37.468 150.669 37.6313 151.229 37.958C151.789 38.2847 152.227 38.735 152.545 39.309C152.862 39.883 153.021 40.5387 153.021 41.276C153.021 42.0087 152.862 42.6667 152.545 43.25C152.227 43.8333 151.789 44.293 151.229 44.629C150.669 44.9603 150.025 45.126 149.297 45.126ZM149.297 44.335C149.857 44.335 150.349 44.2043 150.774 43.943C151.203 43.6817 151.539 43.32 151.782 42.858C152.024 42.396 152.146 41.8687 152.146 41.276C152.146 40.6787 152.024 40.1537 151.782 39.701C151.539 39.2483 151.203 38.896 150.774 38.644C150.349 38.3873 149.857 38.259 149.297 38.259C148.741 38.259 148.249 38.3873 147.82 38.644C147.39 38.896 147.054 39.2483 146.812 39.701C146.569 40.1537 146.448 40.6787 146.448 41.276C146.448 41.8687 146.569 42.396 146.812 42.858C147.054 43.32 147.39 43.6817 147.82 43.943C148.249 44.2043 148.741 44.335 149.297 44.335ZM160.417 45V41.304C160.417 41.0753 160.417 40.8933 160.417 40.758C160.417 40.6227 160.417 40.4897 160.417 40.359C160.417 39.9437 160.342 39.582 160.193 39.274C160.048 38.9613 159.824 38.7187 159.521 38.546C159.218 38.3687 158.828 38.28 158.352 38.28C157.932 38.28 157.538 38.385 157.169 38.595C156.8 38.8003 156.502 39.0803 156.273 39.435C156.049 39.7897 155.937 40.1887 155.937 40.632L155.412 40.436C155.412 39.8713 155.557 39.365 155.846 38.917C156.14 38.469 156.523 38.1143 156.994 37.853C157.47 37.5917 157.974 37.461 158.506 37.461C159.071 37.461 159.561 37.5683 159.976 37.783C160.391 37.993 160.711 38.2987 160.935 38.7C161.164 39.0967 161.278 39.5797 161.278 40.149C161.278 40.345 161.278 40.555 161.278 40.779C161.278 41.003 161.278 41.206 161.278 41.388V45H160.417ZM155.069 45V37.566H155.937V45H155.069Z" fill="white"/>
</g>
<defs>
<clipPath id="clip0_1311_532">
<rect width="196" height="50" fill="white"/>
</clipPath>
</defs>
</svg>
