<svg width="80" height="80" viewBox="0 0 80 80" fill="none" xmlns="http://www.w3.org/2000/svg">
<g id="competitive 1" clip-path="url(#clip0_1307_212)">
<g id="Competitive_1_">
<g id="Group">
<g id="Group_2">
<path id="Vector" d="M50.4233 0.246569C49.2606 -0.327962 47.8598 0.136726 47.2784 1.29485L40 15.8517L32.7216 1.29485C32.1425 0.136726 30.7348 -0.327962 29.5767 0.246569C28.4186 0.825632 27.9494 2.23329 28.5284 3.39141L37.9034 22.1414C38.2488 22.8356 39.0959 23.4369 39.9977 23.4369C39.9988 23.4369 39.9987 23.4363 40 23.4363C40.0013 23.4363 40.0011 23.4369 40.0023 23.4369C40.9258 23.4369 41.7998 22.7381 42.0966 22.1414L51.4716 3.39141C52.0506 2.23329 51.5814 0.825632 50.4233 0.246569ZM44.6875 30.4681C44.6875 27.8841 42.5864 25.7806 40 25.7806C37.4136 25.7806 35.3125 27.8841 35.3125 30.4681C35.3125 33.0522 37.4136 35.1556 40 35.1556C42.5864 35.1556 44.6875 33.0522 44.6875 30.4681ZM23.5938 56.5619H2.34375C1.04828 56.5619 0 57.6102 0 58.9056V77.6556C0 78.9511 1.04828 79.9994 2.34375 79.9994H23.5938C24.8892 79.9994 25.9375 78.9511 25.9375 77.6556V58.9056C25.9375 57.6102 24.8892 56.5619 23.5938 56.5619ZM77.6562 61.2494H56.4062C55.1108 61.2494 54.0625 62.2977 54.0625 63.5931V77.6556C54.0625 78.9511 55.1108 79.9994 56.4062 79.9994H77.6562C78.9517 79.9994 80 78.9511 80 77.6556V63.5931C80 62.2977 78.9517 61.2494 77.6562 61.2494ZM44.6875 63.5931V58.9056C44.6875 56.3216 42.5864 54.2181 40 54.2181H35.3125C32.7261 54.2181 30.625 56.3216 30.625 58.9056C30.625 61.4897 32.7261 63.5931 35.3125 63.5931C32.7261 63.5931 30.625 65.6966 30.625 68.2806C30.625 70.8647 32.7261 72.9681 35.3125 72.9681H44.6875C47.2739 72.9681 49.375 70.8647 49.375 68.2806C49.375 65.6966 47.2739 63.5931 44.6875 63.5931Z" fill="url(#paint0_linear_1307_212)"/>
</g>
</g>
<g id="Group_3">
<g id="Group_4">
<path id="Vector_2" d="M40 42.1868C46.4614 42.1868 51.7188 36.9294 51.7188 30.468C51.7188 24.0066 46.4614 18.7493 40 18.7493C33.5386 18.7493 28.2812 24.0066 28.2812 30.468C28.2812 36.9294 33.5386 42.1868 40 42.1868ZM40 28.1243C41.2944 28.1243 42.3438 29.1733 42.3438 30.468C42.3438 31.7624 41.2944 32.8118 40 32.8118C38.7056 32.8118 37.6562 31.7624 37.6562 30.468C37.6562 29.1735 38.7056 28.1243 40 28.1243ZM54.0625 47.1868H25.9375C24.6248 47.1868 23.5938 48.2179 23.5938 49.5305V79.9993H56.4062V49.5305C56.4062 48.218 55.3752 47.1868 54.0625 47.1868ZM44.6875 70.6243H35.3125C34.017 70.6243 32.9688 69.576 32.9688 68.2805C32.9688 66.985 34.017 65.9368 35.3125 65.9368H37.6562V61.2493H35.3125C34.017 61.2493 32.9688 60.201 32.9688 58.9055C32.9688 57.61 34.017 56.5618 35.3125 56.5618H40C41.2955 56.5618 42.3438 57.61 42.3438 58.9055V65.9368H44.6875C45.983 65.9368 47.0312 66.985 47.0312 68.2805C47.0312 69.576 45.983 70.6243 44.6875 70.6243ZM16.5625 37.6555H14.2188V35.3118C14.2188 34.0163 13.1705 32.968 11.875 32.968C10.5795 32.968 9.53125 34.0163 9.53125 35.3118V37.6555H7.1875C5.89203 37.6555 4.84375 38.7038 4.84375 39.9993C4.84375 41.2947 5.89203 42.343 7.1875 42.343H9.53125V44.6868C9.53125 45.9822 10.5795 47.0305 11.875 47.0305C13.1705 47.0305 14.2188 45.9822 14.2188 44.6868V42.343H16.5625C17.858 42.343 18.9062 41.2947 18.9062 39.9993C18.9062 38.7038 17.858 37.6555 16.5625 37.6555ZM72.8125 42.343H70.4688V39.9993C70.4688 38.7038 69.4205 37.6555 68.125 37.6555C66.8295 37.6555 65.7812 38.7038 65.7812 39.9993V42.343H63.4375C62.142 42.343 61.0938 43.3913 61.0938 44.6868C61.0938 45.9822 62.142 47.0305 63.4375 47.0305H65.7812V49.3743C65.7812 50.6697 66.8295 51.718 68.125 51.718C69.4205 51.718 70.4688 50.6697 70.4688 49.3743V47.0305H72.8125C74.108 47.0305 75.1562 45.9822 75.1562 44.6868C75.1562 43.3913 74.108 42.343 72.8125 42.343Z" fill="url(#paint1_linear_1307_212)"/>
</g>
</g>
</g>
</g>
<defs>
<linearGradient id="paint0_linear_1307_212" x1="40" y1="79.9994" x2="40" y2="0.00063133" gradientUnits="userSpaceOnUse">
<stop stop-color="#ADDCFF"/>
<stop offset="0.5028" stop-color="#EAF6FF"/>
<stop offset="1" stop-color="#EAF6FF"/>
</linearGradient>
<linearGradient id="paint1_linear_1307_212" x1="40" y1="79.9993" x2="40" y2="18.7493" gradientUnits="userSpaceOnUse">
<stop stop-color="#5558FF"/>
<stop offset="1" stop-color="#00C0FF"/>
</linearGradient>
<clipPath id="clip0_1307_212">
<rect width="80" height="80" fill="white"/>
</clipPath>
</defs>
</svg>
