<svg width="80" height="80" viewBox="0 0 80 80" fill="none" xmlns="http://www.w3.org/2000/svg">
<g id="high-performance 1" clip-path="url(#clip0_1307_204)">
<g id="Group">
<g id="Group_2">
<g id="Group_3">
<path id="Vector" d="M68.1744 30.5686C67.2591 29.6533 65.775 29.6533 64.8598 30.5686L54.9067 40.5218C54.4672 40.9614 54.2202 41.5577 54.2202 42.1794C54.2202 42.8011 54.4673 43.3974 54.907 43.8368C57.8527 46.7808 59.8455 50.4763 60.6706 54.5236C60.8931 55.6152 61.8531 56.3993 62.9672 56.3993H77.2094C77.8816 56.3993 78.5213 56.1107 78.9663 55.6069C79.4113 55.1032 79.6183 54.4325 79.5352 53.7655C78.4477 45.0455 74.4131 36.8072 68.1744 30.5686ZM39.9831 54.0685C37.5358 54.0685 35.5295 55.9082 35.3161 58.3475C35.0777 61.0732 37.2295 63.4438 39.9883 63.4438C42.4355 63.4438 44.4419 61.6043 44.6553 59.1646C44.8938 56.439 42.742 54.0685 39.9831 54.0685ZM11.7188 14.2119H2.34375C1.04937 14.2119 0 15.2613 0 16.5557C0 17.85 1.04937 18.8994 2.34375 18.8994H11.7188C13.0131 18.8994 14.0625 17.85 14.0625 16.5557C14.0625 15.2613 13.0131 14.2119 11.7188 14.2119ZM68.2812 18.8994H70.625V21.2432C70.625 22.5375 71.6744 23.5869 72.9688 23.5869C74.2631 23.5869 75.3125 22.5375 75.3125 21.2432V18.8994H77.6562C78.9506 18.8994 80 17.85 80 16.5557C80 15.2613 78.9506 14.2119 77.6562 14.2119H75.3125V11.8682C75.3125 10.5738 74.2631 9.52441 72.9688 9.52441C71.6744 9.52441 70.625 10.5738 70.625 11.8682V14.2119H68.2812C66.9869 14.2119 65.9375 15.2613 65.9375 16.5557C65.9375 17.85 66.9869 18.8994 68.2812 18.8994Z" fill="#D2F0DD"/>
</g>
</g>
<g id="Group_4">
<g id="Group_5">
<path id="Vector_2" d="M54.9064 43.836L60.625 38.1175L68.1742 30.5685C60.6477 23.0435 50.6417 18.8994 40 18.8994C19.9394 18.8994 2.94297 33.8886 0.464847 53.7657C0.381722 54.4327 0.588909 55.1032 1.03375 55.6069C1.4786 56.1107 2.11844 56.3993 2.79063 56.3993H17.0328C18.1467 56.3993 19.1067 55.6152 19.3294 54.5236C21.3227 44.7461 30.0159 37.6494 40 37.6494C45.6245 37.6494 50.9184 39.8464 54.9064 43.836ZM59.1114 45.0075L48.7545 50.9871C46.7578 48.7305 44.0203 47.3455 41.007 47.0819C34.5552 46.5174 28.8761 51.2818 28.3116 57.7347C28.1692 59.3615 28.3648 60.9654 28.8673 62.4689L26.6392 63.7554C24.5706 64.9497 25.4197 68.1293 27.8133 68.1293C28.8219 68.1293 29.2414 67.5793 31.2169 66.5252C33.2136 68.7818 35.9511 70.1668 38.9642 70.4304C45.4156 70.9952 51.0952 66.2305 51.6597 59.7775C51.802 58.1508 51.6064 56.5469 51.1039 55.0433L61.455 49.0671C62.5759 48.4199 62.96 46.9864 62.3128 45.8655C61.6659 44.7446 60.2323 44.3605 59.1114 45.0075ZM42.3206 58.9604C42.2078 60.2499 41.0711 61.2038 39.7816 61.091C38.492 60.9782 37.5381 59.8413 37.6509 58.5519C37.7638 57.2624 38.9005 56.3085 40.19 56.4213C41.4795 56.5341 42.4334 57.671 42.3206 58.9604Z" fill="url(#paint0_linear_1307_204)"/>
</g>
</g>
</g>
</g>
<defs>
<linearGradient id="paint0_linear_1307_204" x1="34.3106" y1="70.4757" x2="34.3106" y2="18.8994" gradientUnits="userSpaceOnUse">
<stop stop-color="#00B59C"/>
<stop offset="1" stop-color="#9CFFAC"/>
</linearGradient>
<clipPath id="clip0_1307_204">
<rect width="80" height="80" fill="white"/>
</clipPath>
</defs>
</svg>
