<svg width="80" height="80" viewBox="0 0 80 80" fill="none" xmlns="http://www.w3.org/2000/svg">
<g id="struggle 1" clip-path="url(#clip0_1307_220)">
<g id="Group">
<path id="Vector" d="M0.0345285 77.2505C-0.185628 78.5262 0.669997 79.7387 1.94562 79.9588C2.08047 79.9821 2.21468 79.9934 2.34703 79.9934C3.46656 79.9934 4.45703 79.1885 4.6539 78.0477L9.44703 50.2699L16.3045 51.4791L25.5372 53.1071C26.8098 53.3316 27.6628 54.5494 27.4373 55.8283L25.6652 66.0354C25.4437 67.3107 26.2981 68.5241 27.5734 68.7455C27.7091 68.7691 27.8439 68.7805 27.977 68.7805C29.0955 68.7805 30.0856 67.9769 30.2834 66.8373L32.0545 56.6362C32.3806 54.7866 31.967 52.9207 30.8897 51.3823C29.8123 49.8438 28.2006 48.8169 26.3511 48.4909L19.4239 47.2694L22.9014 27.414L38.8689 25.6652C38.1845 27.7404 37.8127 29.9562 37.8127 32.2576C37.8127 43.8887 47.2753 53.3512 58.9062 53.3512C70.5372 53.3512 79.9998 43.8885 79.9998 32.2576C79.9998 20.6266 70.5373 11.1638 58.9064 11.1638C51.5455 11.1638 45.0544 14.9546 41.2794 20.6857L22.7681 22.713C21.9333 20.4344 19.943 18.646 17.3859 18.1949C17.0269 18.1316 16.6609 18.096 16.2989 18.0888C12.8128 18.0204 9.84656 20.4629 9.23906 23.9069L0.0345285 77.2505Z" fill="url(#paint0_linear_1307_220)"/>
<g id="Group_2">
<g id="Group_3">
<path id="Vector_2" d="M76.7122 42.3789L1.40012 75.5038C-0.910815 76.5202 -0.18394 79.993 2.34372 79.993H77.6558C78.9501 79.993 79.9995 78.9436 79.9995 77.6492V44.5244C79.9995 42.8333 78.2589 41.6986 76.7122 42.3789ZM20.7815 18.7566C25.9509 18.7566 30.1565 14.551 30.1565 9.38159C30.1565 4.21222 25.9509 0.0065918 20.7815 0.0065918C15.6122 0.0065918 11.4065 4.21222 11.4065 9.38159C11.4065 14.551 15.6122 18.7566 20.7815 18.7566Z" fill="#FFC9C2"/>
</g>
</g>
</g>
</g>
<defs>
<linearGradient id="paint0_linear_1307_220" x1="40.0002" y1="79.9933" x2="40.0002" y2="11.1634" gradientUnits="userSpaceOnUse">
<stop stop-color="#FD3A84"/>
<stop offset="1" stop-color="#FFA68D"/>
</linearGradient>
<clipPath id="clip0_1307_220">
<rect width="80" height="80" fill="white"/>
</clipPath>
</defs>
</svg>
