<svg width="63" height="19" viewBox="0 0 63 19" fill="none" xmlns="http://www.w3.org/2000/svg">
<path d="M0.464 18.5V0.8H4.196V17.384L2.516 15.464H10.784V18.5H0.464ZM19.3192 18.788C18.2152 18.788 17.1832 18.588 16.2232 18.188C15.2632 17.788 14.4192 17.2 13.6912 16.424C12.9632 15.648 12.3912 14.692 11.9752 13.556C11.5592 12.412 11.3512 11.104 11.3512 9.632C11.3512 8.152 11.5552 6.848 11.9632 5.72C12.3792 4.584 12.9512 3.632 13.6792 2.864C14.4072 2.096 15.2512 1.516 16.2112 1.124C17.1712 0.731999 18.2072 0.535999 19.3192 0.535999C20.4232 0.535999 21.4552 0.731999 22.4152 1.124C23.3832 1.516 24.2312 2.096 24.9592 2.864C25.6872 3.632 26.2552 4.584 26.6632 5.72C27.0712 6.848 27.2752 8.152 27.2752 9.632C27.2752 11.104 27.0672 12.412 26.6512 13.556C26.2432 14.692 25.6712 15.648 24.9352 16.424C24.2072 17.2 23.3592 17.788 22.3912 18.188C21.4312 18.588 20.4072 18.788 19.3192 18.788ZM19.3192 15.8C20.0632 15.8 20.7512 15.596 21.3832 15.188C22.0232 14.78 22.5352 14.124 22.9192 13.22C23.3032 12.308 23.4952 11.112 23.4952 9.632C23.4952 8.144 23.2992 6.952 22.9072 6.056C22.5232 5.16 22.0152 4.516 21.3832 4.124C20.7512 3.724 20.0632 3.524 19.3192 3.524C18.5752 3.524 17.8832 3.724 17.2432 4.124C16.6112 4.516 16.1032 5.16 15.7192 6.056C15.3352 6.952 15.1432 8.144 15.1432 9.632C15.1432 11.12 15.3352 12.316 15.7192 13.22C16.1032 14.124 16.6112 14.78 17.2432 15.188C17.8832 15.596 18.5752 15.8 19.3192 15.8ZM36.8294 18.788C35.4294 18.788 34.1534 18.44 33.0014 17.744C31.8574 17.04 30.9454 16.016 30.2654 14.672C29.5934 13.32 29.2574 11.66 29.2574 9.692C29.2574 7.732 29.6134 6.072 30.3254 4.712C31.0374 3.352 31.9934 2.316 33.1934 1.604C34.4014 0.891999 35.7494 0.535999 37.2374 0.535999C38.4774 0.535999 39.5254 0.735999 40.3814 1.136C41.2454 1.536 41.9454 2.048 42.4814 2.672C43.0254 3.296 43.4214 3.956 43.6694 4.652C43.9174 5.34 44.0414 5.976 44.0414 6.56C44.0414 6.584 44.0414 6.608 44.0414 6.632C44.0414 6.656 44.0414 6.68 44.0414 6.704H40.4174C40.4174 6.68 40.4174 6.656 40.4174 6.632C40.4174 6.608 40.4174 6.584 40.4174 6.56C40.4174 6.192 40.3494 5.828 40.2134 5.468C40.0774 5.1 39.8734 4.772 39.6014 4.484C39.3374 4.196 39.0054 3.964 38.6054 3.788C38.2134 3.612 37.7574 3.524 37.2374 3.524C36.5334 3.524 35.8614 3.724 35.2214 4.124C34.5814 4.524 34.0574 5.176 33.6494 6.08C33.2414 6.976 33.0374 8.18 33.0374 9.692C33.0374 10.844 33.1494 11.812 33.3734 12.596C33.6054 13.38 33.9134 14.008 34.2974 14.48C34.6814 14.944 35.1174 15.28 35.6054 15.488C36.1014 15.696 36.6134 15.8 37.1414 15.8C37.8694 15.8 38.4774 15.68 38.9654 15.44C39.4614 15.192 39.8494 14.888 40.1294 14.528C40.4094 14.168 40.5894 13.812 40.6694 13.46V12.308H37.1654V9.62H43.9694V18.5H42.0134L41.6774 16.544C41.6134 16.696 41.4774 16.896 41.2694 17.144C41.0614 17.392 40.7654 17.644 40.3814 17.9C40.0054 18.148 39.5214 18.356 38.9294 18.524C38.3454 18.7 37.6454 18.788 36.8294 18.788ZM54.452 18.788C53.348 18.788 52.316 18.588 51.356 18.188C50.396 17.788 49.552 17.2 48.824 16.424C48.096 15.648 47.524 14.692 47.108 13.556C46.692 12.412 46.484 11.104 46.484 9.632C46.484 8.152 46.688 6.848 47.096 5.72C47.512 4.584 48.084 3.632 48.812 2.864C49.54 2.096 50.384 1.516 51.344 1.124C52.304 0.731999 53.34 0.535999 54.452 0.535999C55.556 0.535999 56.588 0.731999 57.548 1.124C58.516 1.516 59.364 2.096 60.092 2.864C60.82 3.632 61.388 4.584 61.796 5.72C62.204 6.848 62.408 8.152 62.408 9.632C62.408 11.104 62.2 12.412 61.784 13.556C61.376 14.692 60.804 15.648 60.068 16.424C59.34 17.2 58.492 17.788 57.524 18.188C56.564 18.588 55.54 18.788 54.452 18.788ZM54.452 15.8C55.196 15.8 55.884 15.596 56.516 15.188C57.156 14.78 57.668 14.124 58.052 13.22C58.436 12.308 58.628 11.112 58.628 9.632C58.628 8.144 58.432 6.952 58.04 6.056C57.656 5.16 57.148 4.516 56.516 4.124C55.884 3.724 55.196 3.524 54.452 3.524C53.708 3.524 53.016 3.724 52.376 4.124C51.744 4.516 51.236 5.16 50.852 6.056C50.468 6.952 50.276 8.144 50.276 9.632C50.276 11.12 50.468 12.316 50.852 13.22C51.236 14.124 51.744 14.78 52.376 15.188C53.016 15.596 53.708 15.8 54.452 15.8Z" fill="white"/>
</svg>
