<svg width="50" height="50" viewBox="0 0 50 50" fill="none" xmlns="http://www.w3.org/2000/svg">
<g id="box 1">
<g id="g2679">
<g id="g2681">
<path id="path2683 (Stroke)" fill-rule="evenodd" clip-rule="evenodd" d="M9.47485 34.1442C9.87936 34.1442 10.2073 33.8162 10.2073 33.4117V30.211C10.2073 29.8065 9.87936 29.4785 9.47485 29.4785C9.07035 29.4785 8.74243 29.8065 8.74243 30.211V33.4117C8.74243 33.8162 9.07035 34.1442 9.47485 34.1442Z" fill="#53AFE9"/>
</g>
<g id="g2685">
<g id="Clip path group">
<mask id="mask0_1315_1063" style="mask-type:luminance" maskUnits="userSpaceOnUse" x="0" y="0" width="50" height="50">
<g id="clipPath2691">
<path id="path2689" d="M0 2.98023e-06H50V50H0V2.98023e-06Z" fill="white"/>
</g>
</mask>
<g mask="url(#mask0_1315_1063)">
<g id="g2687">
<g id="g2693">
<path id="path2695 (Stroke)" fill-rule="evenodd" clip-rule="evenodd" d="M25.2838 48.462C25.1067 48.5579 24.8931 48.5579 24.716 48.462L10.5193 40.7699C10.327 40.6658 10.2073 40.4647 10.2073 40.2459V37.0276C10.2073 36.6231 9.87936 36.2952 9.47485 36.2952C9.07035 36.2952 8.74243 36.6231 8.74243 37.0276V40.2459C8.74243 41.002 9.15645 41.6976 9.82145 42.0579L24.0181 49.7498C24.0181 49.7499 24.0181 49.7498 24.0181 49.7498C24.6306 50.0817 25.3692 50.0818 25.9817 49.7499C25.9817 49.7499 25.9817 49.7499 25.9817 49.7499L40.1784 42.0579C40.8433 41.6976 41.2574 41.002 41.2574 40.2459V30.4536C41.2574 30.049 40.9295 29.7211 40.5249 29.7211C40.1204 29.7211 39.7925 30.049 39.7925 30.4536V40.2459C39.7925 40.4647 39.6728 40.6658 39.4805 40.7699L25.2838 48.462Z" fill="#53AFE9"/>
</g>
<g id="g2697">
<path id="path2699 (Stroke)" fill-rule="evenodd" clip-rule="evenodd" d="M25 49.517C25.4045 49.517 25.7324 49.1891 25.7324 48.7846V32.6252C25.7324 32.2207 25.4045 31.8928 25 31.8928C24.5955 31.8928 24.2676 32.2207 24.2676 32.6252V48.7846C24.2676 49.1891 24.5955 49.517 25 49.517Z" fill="#53AFE9"/>
</g>
<g id="g2701">
<path id="path2703 (Stroke)" fill-rule="evenodd" clip-rule="evenodd" d="M24.6509 33.2692C24.8686 33.3871 25.1311 33.3871 25.3487 33.2692L40.8739 24.8574C41.1102 24.7294 41.2574 24.4822 41.2574 24.2135C41.2574 23.9447 41.1102 23.6975 40.8739 23.5695L25.3487 15.1577C25.1311 15.0397 24.8685 15.0397 24.6509 15.1577L9.12569 23.5695C8.88939 23.6975 8.74219 23.9447 8.74219 24.2135C8.74219 24.4822 8.88939 24.7294 9.1257 24.8574L24.6509 33.2692ZM11.0121 24.2135L24.9998 16.6347L38.9875 24.2135L24.9998 31.7922L11.0121 24.2135Z" fill="#53AFE9"/>
</g>
<g id="g2705">
<path id="path2707 (Stroke)" fill-rule="evenodd" clip-rule="evenodd" d="M40.1762 24.8574C40.4776 25.0208 40.852 24.9531 41.0772 24.6947L46.0159 19.0287C46.6036 18.3544 46.4148 17.3092 45.6285 16.883L40.1837 13.9331C39.828 13.7404 39.3835 13.8725 39.1908 14.2281C38.9981 14.5838 39.1302 15.0283 39.4859 15.221L44.8557 18.1304L40.3583 23.2901L26.1531 15.5934L29.1049 12.2071C29.3706 11.9022 29.3389 11.4395 29.034 11.1738C28.7291 10.908 28.2664 10.9397 28.0006 11.2446L24.4479 15.3204C24.3018 15.488 24.2397 15.713 24.2792 15.9318C24.3188 16.1506 24.4556 16.3397 24.6511 16.4456L40.1762 24.8574Z" fill="#53AFE9"/>
</g>
<g id="g2709">
<path id="path2711 (Stroke)" fill-rule="evenodd" clip-rule="evenodd" d="M37.2943 13.2006C37.487 12.845 37.3549 12.4004 36.9992 12.2078L32.2721 9.64662C31.9165 9.45392 31.472 9.58603 31.2793 9.94169C31.0866 10.2973 31.2187 10.7419 31.5743 10.9346L36.3014 13.4957C36.657 13.6884 37.1016 13.5563 37.2943 13.2006Z" fill="#53AFE9"/>
</g>
<g id="g2713">
<path id="path2715 (Stroke)" fill-rule="evenodd" clip-rule="evenodd" d="M8.92272 24.6947C9.14797 24.9531 9.52234 25.0208 9.82376 24.8574L25.349 16.4456C25.5445 16.3397 25.6813 16.1507 25.7208 15.9318C25.7603 15.713 25.6983 15.488 25.5522 15.3204L20.418 9.43026L19.8659 9.91151M9.64161 23.2901L23.8469 15.5934L19.3496 10.4339L16.4625 11.9982C16.1069 12.1909 15.6623 12.0588 15.4696 11.7031C15.2769 11.3474 15.409 10.9029 15.7647 10.7102L18.6999 9.11993C19.2744 8.80873 19.9883 8.93735 20.418 9.43026L19.8659 9.91151M9.64161 23.2901L5.14432 18.1304L13.182 13.7756C13.5376 13.5829 13.6697 13.1384 13.477 12.7827C13.2843 12.4271 12.8398 12.295 12.4841 12.4877L4.37165 16.883C3.58508 17.3091 3.39654 18.3544 3.98411 19.0287L8.92272 24.6947" fill="#53AFE9"/>
</g>
<g id="g2717">
<path id="path2719 (Stroke)" fill-rule="evenodd" clip-rule="evenodd" d="M18.9718 35.4395C18.9718 35.4395 18.9718 35.4395 18.9718 35.4395L25.2348 33.319C25.5106 33.2256 25.7049 32.9776 25.7297 32.6874C25.7544 32.3973 25.6049 32.12 25.3488 31.9813L9.82363 23.5695C9.64441 23.4724 9.43285 23.4543 9.23979 23.5197L3.86934 25.3383C3.86932 25.3383 3.8693 25.3383 3.86928 25.3384C2.71448 25.7294 2.58005 27.3084 3.65197 27.8891L3.65197 27.8891L3.65205 27.8892L17.3291 35.2995L17.3292 35.2995C17.8334 35.5726 18.4286 35.6234 18.9718 35.4395ZM18.0268 34.0115L4.48722 26.6756L9.40686 25.0097L23.1754 32.4697L18.502 34.052L18.502 34.052C18.345 34.1052 18.1728 34.0906 18.0268 34.0115ZM4.33907 26.7258C4.33909 26.7258 4.3391 26.7258 4.33912 26.7258Z" fill="#53AFE9"/>
</g>
<g id="g2721">
<path id="path2723 (Stroke)" fill-rule="evenodd" clip-rule="evenodd" d="M31.4976 34.0521C31.4976 34.0521 31.4975 34.0521 31.4975 34.052L26.8242 32.4697L40.5928 25.0097L45.5125 26.6756L31.9728 34.0115C31.827 34.0905 31.6547 34.1052 31.4976 34.0521ZM45.6606 26.7258C45.6606 26.7258 45.6606 26.7258 45.6606 26.7258ZM31.028 35.4396C31.5711 35.6234 32.1663 35.5726 32.6705 35.2995L46.3478 27.8891C46.3478 27.8891 46.3478 27.8891 46.3478 27.8891C47.4196 27.3084 47.2852 25.7293 46.1304 25.3383C46.1304 25.3383 46.1304 25.3383 46.1304 25.3383L40.7599 23.5197C40.5668 23.4543 40.3553 23.4723 40.176 23.5694L24.6509 31.9812C24.3948 32.12 24.2453 32.3972 24.27 32.6874C24.2947 32.9776 24.489 33.2256 24.7649 33.319L31.028 35.4396Z" fill="#53AFE9"/>
</g>
<g id="g2725">
<path id="path2727 (Stroke)" fill-rule="evenodd" clip-rule="evenodd" d="M28.5022 43.3762C28.6949 43.7319 29.1394 43.864 29.4951 43.6713L31.1752 42.7609C31.5309 42.5682 31.663 42.1237 31.4703 41.7681C31.2776 41.4124 30.8331 41.2803 30.4774 41.473L28.7972 42.3834C28.4416 42.5761 28.3095 43.0206 28.5022 43.3762Z" fill="#53AFE9"/>
</g>
<g id="g2729">
<path id="path2731 (Stroke)" fill-rule="evenodd" clip-rule="evenodd" d="M16.3764 6.16786C16.6624 6.45389 17.1262 6.45389 17.4122 6.16786L19.6564 3.92363C19.9425 3.6376 19.9425 3.17385 19.6564 2.88782C19.3704 2.6018 18.9067 2.6018 18.6206 2.88782L16.3764 5.13206C16.0904 5.41809 16.0904 5.88184 16.3764 6.16786Z" fill="#53AFE9"/>
</g>
<g id="g2733">
<path id="path2735 (Stroke)" fill-rule="evenodd" clip-rule="evenodd" d="M19.6564 6.16792C19.9425 5.8819 19.9425 5.41815 19.6564 5.13212L17.4122 2.88789C17.1262 2.60186 16.6624 2.60186 16.3764 2.88789C16.0904 3.17391 16.0904 3.63766 16.3764 3.92369L18.6206 6.16792C18.9067 6.45395 19.3704 6.45395 19.6564 6.16792Z" fill="#53AFE9"/>
</g>
<g id="g2737">
<path id="path2739 (Stroke)" fill-rule="evenodd" clip-rule="evenodd" d="M10.1904 10.5156C10.1904 12.3784 11.7004 13.8885 13.5633 13.8885C15.4262 13.8885 16.9362 12.3784 16.9362 10.5156C16.9362 8.65281 15.4262 7.14265 13.5633 7.14265C11.7004 7.14265 10.1904 8.65283 10.1904 10.5156ZM13.5633 12.4237C12.5095 12.4237 11.6553 11.5694 11.6553 10.5156C11.6553 9.46177 12.5095 8.6075 13.5633 8.6075C14.6172 8.6075 15.4714 9.46179 15.4714 10.5156C15.4714 11.5694 14.6172 12.4237 13.5633 12.4237Z" fill="#53AFE9"/>
</g>
<g id="g2741">
<path id="path2743 (Stroke)" fill-rule="evenodd" clip-rule="evenodd" d="M38.06 10.9658C38.346 11.2518 38.8098 11.2518 39.0958 10.9658L41.34 8.72154C41.626 8.43551 41.626 7.97177 41.34 7.68574C41.054 7.39971 40.5902 7.39971 40.3042 7.68574L38.06 9.92998C37.774 10.216 37.774 10.6797 38.06 10.9658Z" fill="#53AFE9"/>
</g>
<g id="g2745">
<path id="path2747 (Stroke)" fill-rule="evenodd" clip-rule="evenodd" d="M41.34 10.9658C41.626 10.6798 41.626 10.2161 41.34 9.93004L39.0958 7.6858C38.8098 7.39977 38.346 7.39977 38.06 7.6858C37.774 7.97183 37.774 8.43557 38.06 8.7216L40.3042 10.9658C40.5902 11.2519 41.054 11.2519 41.34 10.9658Z" fill="#53AFE9"/>
</g>
<g id="g2749">
<path id="path2751 (Stroke)" fill-rule="evenodd" clip-rule="evenodd" d="M26.9314 9.91176C26.9314 11.4746 28.1982 12.7416 29.7611 12.7416C31.3241 12.7416 32.591 11.4746 32.591 9.91176C32.591 8.34895 31.3241 7.08197 29.7611 7.08197C28.1982 7.08197 26.9314 8.34899 26.9314 9.91176ZM29.7611 11.2768C29.0074 11.2768 28.3962 10.6657 28.3962 9.91176C28.3962 9.15792 29.0073 8.54681 29.7611 8.54681C30.5151 8.54681 31.1261 9.15796 31.1261 9.91176C31.1261 10.6657 30.5151 11.2768 29.7611 11.2768Z" fill="#53AFE9"/>
</g>
<g id="g2753">
<path id="path2755 (Stroke)" fill-rule="evenodd" clip-rule="evenodd" d="M30.8254 3.19098C30.8254 4.95335 32.2543 6.3819 34.0165 6.3819C35.7789 6.3819 37.2075 4.95332 37.2075 3.19098C37.2075 1.42868 35.7789 -3.60459e-05 34.0165 -3.60459e-05C32.2543 -3.60459e-05 30.8254 1.42864 30.8254 3.19098ZM34.0165 4.91705C33.0632 4.91705 32.2903 4.14423 32.2903 3.19098C32.2903 2.23769 33.0632 1.46481 34.0165 1.46481C34.9698 1.46481 35.7426 2.23765 35.7426 3.19098C35.7426 4.14427 34.9699 4.91705 34.0165 4.91705Z" fill="#53AFE9"/>
</g>
<g id="g2757">
<path id="path2759 (Stroke)" fill-rule="evenodd" clip-rule="evenodd" d="M24.6511 33.269C24.8687 33.3869 25.1313 33.3869 25.3489 33.269L31.5042 29.934C31.6482 29.856 31.7619 29.732 31.8271 29.5818C32.2209 28.6749 32.4385 27.6743 32.4385 26.626C32.4385 23.2158 30.1427 20.3452 27.0155 19.4662C26.6261 19.3567 26.2216 19.5837 26.1122 19.9731C26.0027 20.3625 26.2297 20.7669 26.6191 20.8764C29.1319 21.5827 30.9736 23.8901 30.9736 26.626C30.9736 27.3828 30.833 28.1058 30.5768 28.7704L25 31.792L19.4232 28.7704C19.167 28.1058 19.0264 27.3828 19.0264 26.626C19.0264 23.884 20.8763 21.5723 23.3976 20.8716C23.7873 20.7633 24.0155 20.3595 23.9071 19.9698C23.7988 19.5801 23.3951 19.3519 23.0053 19.4602C19.8675 20.3324 17.5615 23.2082 17.5615 26.626C17.5615 27.6743 17.7791 28.6749 18.1729 29.5818C18.2381 29.732 18.3518 29.856 18.4958 29.934L24.6511 33.269Z" fill="#53AFE9"/>
</g>
<g id="g2761">
<path id="path2763 (Stroke)" fill-rule="evenodd" clip-rule="evenodd" d="M26.8898 29.0974C27.1524 28.7897 27.1158 28.3274 26.8081 28.0649C26.3132 27.6425 25.6442 27.3962 24.9265 27.3941C24.2089 27.3919 23.5383 27.6341 23.0408 28.0537C22.7315 28.3145 22.6923 28.7766 22.9531 29.0858C23.2139 29.395 23.6759 29.4343 23.9852 29.1735C24.2023 28.9903 24.5315 28.8577 24.9221 28.8589C25.3126 28.8601 25.6411 28.9947 25.8573 29.1791C26.165 29.4417 26.6273 29.4051 26.8898 29.0974Z" fill="#53AFE9"/>
</g>
<g id="g2765">
<path id="path2767 (Stroke)" fill-rule="evenodd" clip-rule="evenodd" d="M27.4539 25.9574C27.4539 26.3619 27.7818 26.6898 28.1863 26.6898H28.1932C28.5977 26.6898 28.9256 26.3619 28.9256 25.9574C28.9256 25.5529 28.5977 25.225 28.1932 25.225H28.1863C27.7818 25.225 27.4539 25.5529 27.4539 25.9574Z" fill="#53AFE9"/>
</g>
<g id="g2769">
<path id="path2771 (Stroke)" fill-rule="evenodd" clip-rule="evenodd" d="M21.0742 25.9574C21.0742 26.3619 21.4021 26.6898 21.8066 26.6898H21.8135C22.218 26.6898 22.5459 26.3619 22.5459 25.9574C22.5459 25.5529 22.218 25.225 21.8135 25.225H21.8066C21.4021 25.225 21.0742 25.5529 21.0742 25.9574Z" fill="#53AFE9"/>
</g>
<g id="g2773">
<path id="path2775 (Stroke)" fill-rule="evenodd" clip-rule="evenodd" d="M27.4531 25.9574C27.4531 26.3619 27.781 26.6898 28.1855 26.6898H28.1924C28.5969 26.6898 28.9248 26.3619 28.9248 25.9574C28.9248 25.5529 28.5969 25.225 28.1924 25.225H28.1855C27.781 25.225 27.4531 25.5529 27.4531 25.9574Z" fill="#53AFE9"/>
</g>
</g>
</g>
</g>
</g>
</g>
</g>
</svg>
